<svg width="108" height="92" viewBox="0 0 108 92" fill="none" xmlns="http://www.w3.org/2000/svg">
    <path d="M54.0782 17.2382C53.0782 17.5652 52.5223 18.6504 52.9897 19.593C53.9416 21.5125 55.3425 23.188 57.0856 24.4724C59.344 26.1365 62.0655 27.062 64.8748 27.1214C67.684 27.1807 70.4426 26.3709 72.7698 24.8037C74.5661 23.594 76.0371 21.9792 77.0699 20.1017C77.577 19.1798 77.0675 18.0717 76.0821 17.7026C75.101 17.3352 74.0224 17.8446 73.4689 18.734C72.7473 19.8936 71.7847 20.8953 70.638 21.6675C68.9629 22.7955 66.9774 23.3784 64.9555 23.3357C62.9335 23.293 60.9746 22.6268 59.3492 21.4291C58.2368 20.6094 57.318 19.5685 56.6465 18.38C56.1309 17.4675 55.0743 16.9124 54.0782 17.2382Z" fill="#D87023"/>
    <path d="M63.42 12.3013C64.6663 13.5385 66.5118 16.8902 65.5703 17.8297C64.6288 18.7692 61.2566 16.9408 60.0104 15.7036C58.7642 14.4664 58.5172 12.7017 59.4587 11.7622C60.4003 10.8227 62.1738 11.064 63.42 12.3013Z" fill="#009F79"/>
    <path d="M68.5401 14.5739C67.7042 15.4505 66.4951 17.7963 67.1622 18.4265C67.8292 19.0566 70.1198 17.7325 70.9557 16.856C71.7916 15.9794 71.9285 14.7579 71.2614 14.1278C70.5943 13.4976 69.376 13.6973 68.5401 14.5739Z" fill="#009F79"/>
    <path d="M18.5041 12.2817C21.3302 12.2817 23.9181 12.8532 26.2678 13.9964C28.6493 15.1077 29.84 16.3937 29.84 17.8544C29.84 18.4895 29.6178 19.0293 29.1732 19.4738C28.7604 19.9184 28.2524 20.1406 27.6491 20.1406C27.0458 20.1406 26.4424 19.9025 25.8391 19.4262C25.2358 18.9499 24.6484 18.426 24.0768 17.8544C23.537 17.2511 22.6638 16.7113 21.4572 16.235C20.2823 15.7587 18.8852 15.5205 17.2657 15.5205C13.6459 15.5205 10.7881 16.6636 8.69235 18.9499C6.62839 21.2044 5.5964 24.2844 5.5964 28.1901C5.5964 32.064 6.73952 35.414 9.02576 38.24C11.312 41.0661 14.2015 42.4791 17.6944 42.4791C21.219 42.4791 24.4261 40.7961 27.3157 37.4303C27.9507 36.6682 28.4111 36.2872 28.6969 36.2872C29.0145 36.2872 29.2526 36.3983 29.4114 36.6206C29.6019 36.8111 29.6972 37.1128 29.6972 37.5256C29.6972 37.9384 29.3637 38.6052 28.6969 39.526C28.0619 40.4151 27.1886 41.336 26.0773 42.2886C24.9977 43.2094 23.5688 44.0191 21.7906 44.7177C20.0442 45.3845 18.2183 45.7179 16.3131 45.7179C12.1217 45.7179 8.62884 44.2255 5.83455 41.2407C3.07202 38.2559 1.69075 34.4137 1.69075 29.7142C1.69075 24.983 3.27841 20.9027 6.45374 17.4734C9.66083 14.0122 13.6776 12.2817 18.5041 12.2817ZM50.7615 38.621C50.952 39.5419 51.3648 40.3675 51.9999 41.0978C52.6667 41.7964 53.0001 42.5108 53.0001 43.2412C53.0001 43.9715 52.7461 44.5748 52.238 45.0511C51.73 45.4956 51.1743 45.7179 50.571 45.7179C49.9677 45.7179 49.4755 45.6068 49.0944 45.3845C48.7134 45.1622 48.3959 44.8288 48.1418 44.3843C47.7926 43.7175 47.5227 42.9077 47.3321 41.9551L45.2364 32.0005C44.9189 30.5398 44.4108 29.3808 43.7123 28.5235C43.0454 27.6662 41.9976 27.2375 40.5687 27.2375C39.1715 27.2375 38.0761 27.7297 37.2822 28.714C36.5201 29.6666 36.1232 30.7145 36.0915 31.8576C36.3455 39.3831 36.4725 43.3682 36.4725 43.8127C36.4725 44.2255 36.282 44.6542 35.901 45.0987C35.5199 45.5115 35.0277 45.7179 34.4244 45.7179C33.8211 45.7179 33.2972 45.5115 32.8526 45.0987C32.4398 44.6542 32.2334 43.9397 32.2334 42.9554C32.2334 41.971 32.3128 39.6372 32.4716 35.9538C32.6304 32.2386 32.7097 29.365 32.7097 27.3328C32.7097 25.3005 32.6304 22.5698 32.4716 19.1404C32.3128 15.711 32.2334 13.5042 32.2334 12.5198C32.2334 11.5355 32.4398 10.821 32.8526 10.3765C33.2972 9.93194 33.8211 9.70967 34.4244 9.70967C35.0277 9.70967 35.5199 9.93194 35.901 10.3765C36.282 10.7893 36.4725 11.4879 36.4725 12.4722C36.4725 13.4248 36.3931 15.6793 36.2344 19.2357C36.1074 22.7603 36.0438 25.6498 36.0438 27.9043C37.9173 25.11 40.0765 23.7129 42.5215 23.7129C45.8556 23.7129 47.999 25.9515 48.9516 30.4287L50.7615 38.621ZM58.7276 29.5714C57.3305 30.9685 56.6319 32.6832 56.6319 34.7154C56.6319 36.7476 57.3305 38.4782 58.7276 39.9071C60.1565 41.3042 61.8712 42.0028 63.8716 42.0028C65.9038 42.0028 67.6026 41.3042 68.968 39.9071C70.3334 38.4782 71.0161 36.7476 71.0161 34.7154C71.0161 32.6832 70.3334 30.9685 68.968 29.5714C67.6026 28.1742 65.9038 27.4756 63.8716 27.4756C61.8712 27.4756 60.1565 28.1742 58.7276 29.5714ZM60.6328 45.7179C58.6006 45.7179 56.9018 44.9241 55.5364 43.3364C54.171 41.7487 53.4883 39.7642 53.4883 37.3827C53.4883 34.9694 54.2345 32.6514 55.7269 30.4287C57.2193 28.1742 58.9658 26.4913 60.9662 25.3799C62.9667 24.2686 64.983 23.7129 67.0152 23.7129C69.0474 23.7129 70.7462 24.5067 72.1116 26.0944C73.477 27.682 74.1597 29.6825 74.1597 32.0957C74.1597 34.4772 73.4135 36.7952 71.9211 39.0497C70.4287 41.2724 68.6823 42.9395 66.6818 44.0509C64.6813 45.1622 62.665 45.7179 60.6328 45.7179ZM82.5128 45.7179C81.9412 45.7179 81.4332 45.4798 80.9886 45.0035C80.5759 44.4954 80.2583 43.8921 80.036 43.1935C78.0673 36.7794 76.3368 31.9846 74.8444 28.8093C74.2411 27.4439 73.9394 26.4437 73.9394 25.8086C73.9394 25.1735 74.1141 24.6655 74.4633 24.2844C74.8126 23.9034 75.2572 23.7129 75.797 23.7129C76.6226 23.7129 77.2894 24.3321 77.7974 25.5704C78.3372 26.8088 79.3057 29.3491 80.7029 33.1912C82.1318 37.0016 82.9891 39.3672 83.2749 40.2881C83.5607 41.1772 83.7512 41.7487 83.8464 42.0028L83.9893 42.4791C84.8784 41.8758 85.8787 40.6215 86.99 38.7163C88.1331 36.8111 88.9111 34.9218 89.3239 33.0483C88.7206 31.4289 88.1331 29.9842 87.5616 28.714C86.99 27.4121 86.7042 26.4437 86.7042 25.8086C86.7042 25.1735 86.8789 24.6655 87.2282 24.2844C87.5775 23.9034 88.022 23.7129 88.5618 23.7129C89.3874 23.7129 90.0542 24.3321 90.5623 25.5704C91.1021 26.8088 92.0705 29.3491 93.4677 33.1912C94.8966 37.0016 95.7539 39.3672 96.0397 40.2881C96.3255 41.1772 96.516 41.7487 96.6113 42.0028L96.7542 42.4791C97.8973 41.717 99.1198 40.0658 100.422 37.5256C101.755 34.9535 102.422 32.6356 102.422 30.5716C102.422 29.873 102.232 29.0474 101.851 28.0948C101.47 27.1105 101.279 26.3484 101.279 25.8086C101.279 25.2688 101.485 24.7925 101.898 24.3797C102.343 23.9351 102.93 23.7129 103.661 23.7129C104.391 23.7129 104.978 24.0622 105.423 24.7607C105.899 25.4593 106.137 26.6342 106.137 28.2853C106.137 29.9365 105.582 32.1751 104.47 35.0012C103.391 37.8272 101.978 40.3198 100.231 42.4791C98.4847 44.6383 96.8335 45.7179 95.2776 45.7179C94.198 45.7179 93.3724 44.8764 92.8009 43.1935C92.6739 42.8442 92.3881 41.971 91.9435 40.5739L90.7528 37.0969C89.5779 39.5419 88.2443 41.59 86.7519 43.2412C85.2595 44.8923 83.8464 45.7179 82.5128 45.7179Z" fill="#D87023"/>
    <path d="M18.6946 71.2338C18.9169 71.8054 19.3773 72.5833 20.0759 73.5677C20.8062 74.5203 21.1714 75.2982 21.1714 75.9015C21.1714 76.5048 21.0126 76.997 20.6951 77.3781C20.3776 77.7273 19.9489 77.902 19.4091 77.902C18.1072 77.902 16.9482 76.5525 15.9321 73.8534L15.5511 72.8056C13.9316 76.2032 11.5025 77.902 8.26368 77.902C6.64426 77.902 5.29475 77.3939 4.21514 76.3778C3.16728 75.33 2.64335 74.0281 2.64335 72.4722C2.64335 70.0589 3.46893 67.9791 5.1201 66.2327C6.77128 64.4862 8.9305 63.5495 11.5978 63.4225C10.9627 62.3111 10.2483 61.4855 9.45443 60.9457C8.69235 60.3742 7.99378 60.0408 7.35871 59.9455C6.72365 59.8502 6.12033 59.8026 5.54877 59.8026C5.00897 59.7709 4.5803 59.6438 4.26277 59.4216C3.94523 59.1993 3.78647 58.7706 3.78647 58.1356C3.78647 57.4687 4.04049 56.9289 4.54854 56.5161C5.08835 56.1034 5.72342 55.897 6.45374 55.897C8.51771 55.897 10.5499 56.9289 12.5504 58.9929C14.5508 61.0569 16.2973 64.2957 17.7897 68.7094L18.6946 71.2338ZM10.407 65.9469C9.26391 65.9469 8.23193 66.3279 7.31108 67.09C6.42199 67.8521 5.97744 68.8364 5.97744 70.0431C5.97744 71.2497 6.37436 72.2658 7.16819 73.0914C7.99378 73.8852 8.97813 74.2821 10.1212 74.2821C11.2644 74.2821 12.2487 73.8852 13.0743 73.0914C13.8999 72.2658 14.3127 71.2973 14.3127 70.1859C14.3127 69.3921 14.1698 68.6618 13.884 67.995C13.5982 67.2964 13.4236 66.8677 13.3601 66.709C12.5345 66.2009 11.5501 65.9469 10.407 65.9469ZM22.8377 85.8562C23.1552 84.6178 23.4569 82.792 23.7427 80.3787C24.0602 77.9655 24.219 75.203 24.219 72.0911C24.219 68.9793 24.0761 64.7085 23.7903 59.2787H22.3138C21.0754 59.2787 20.4562 58.7389 20.4562 57.6593C20.4562 56.5797 21.0754 56.0398 22.3138 56.0398C22.9488 56.0398 23.4251 56.0557 23.7427 56.0875C23.8697 52.1183 25.3621 48.7683 28.2199 46.0376C31.1094 43.275 33.999 41.8938 36.8885 41.8938C38.0317 41.8938 38.9684 42.1001 39.6987 42.5129C40.4608 42.9257 40.8418 43.529 40.8418 44.3229C40.8418 45.085 40.6195 45.6883 40.175 46.1328C39.7622 46.5456 39.3494 46.752 38.9366 46.752C38.5238 46.752 37.8094 46.5774 36.7933 46.2281C35.7772 45.847 34.7769 45.6565 33.7926 45.6565C31.8239 45.6565 30.141 46.5297 28.7438 48.2762C27.3467 49.9908 26.6481 52.0548 26.6481 54.4681V56.278H28.1723L34.7452 55.897C35.9836 55.897 36.6028 56.4844 36.6028 57.6593C36.6028 58.8341 35.9836 59.4216 34.7452 59.4216L28.1723 59.0405C27.4737 59.0405 26.9656 59.0564 26.6481 59.0882C26.7116 62.581 26.8545 66.5026 27.0768 70.8528C27.3308 75.203 27.4578 79.4897 27.4578 83.7128C27.4578 88.8569 26.4576 91.4289 24.4571 91.4289C23.06 91.4289 22.3614 90.5239 22.3614 88.714C22.3614 88.0789 22.5202 87.1263 22.8377 85.8562ZM41.9563 66.4232L42.3373 75.0442C42.3373 75.9015 42.115 76.6001 41.6705 77.1399C41.2577 77.648 40.7497 77.902 40.1463 77.902C39.543 77.902 39.0509 77.6638 38.6698 77.1875C38.2888 76.6795 38.0983 75.9968 38.0983 75.1395C38.0983 74.2821 38.1776 73.0596 38.3364 71.4719C38.6539 68.2966 38.8127 65.6135 38.8127 63.4225C38.8127 62.4699 38.511 61.5649 37.9077 60.7076C37.3362 59.8185 37.0504 59.0247 37.0504 58.3261C37.0504 57.6275 37.2885 57.056 37.7648 56.6114C38.2411 56.1351 38.781 55.897 39.3843 55.897C40.9719 55.897 41.7658 57.1512 41.7658 59.6597V61.5173C42.7184 59.8026 43.8615 58.4372 45.1951 57.4211C46.5288 56.405 47.7513 55.897 48.8626 55.897C49.974 55.897 50.8154 56.1827 51.387 56.7543C51.9903 57.2941 52.292 58.0244 52.292 58.9453C52.292 59.8661 52.0697 60.6441 51.6252 61.2791C51.1806 61.8825 50.7043 62.1841 50.1963 62.1841C49.6882 62.1841 49.2913 62.0571 49.0055 61.8031C48.7515 61.5173 48.561 61.2315 48.434 60.9457C48.3069 60.6282 48.0688 60.3424 47.7195 60.0884C47.3702 59.8026 46.9257 59.6597 46.3859 59.6597C45.465 59.6597 44.5442 60.263 43.6233 61.4697C42.7025 62.6763 42.1468 64.3275 41.9563 66.4232ZM54.4662 74.1392C54.4662 70.1383 54.3868 66.6296 54.2281 63.613C54.0693 60.5964 53.9899 58.8183 53.9899 58.2785C53.9899 57.7386 54.1963 57.2147 54.6091 56.7067C55.0536 56.1669 55.5776 55.897 56.1809 55.897C56.7842 55.897 57.2764 56.151 57.6574 56.659C58.0385 57.1353 58.229 57.8498 58.229 58.8024C58.229 59.7232 58.1178 61.295 57.8956 63.5177C57.6733 65.7087 57.5622 67.995 57.5622 70.3765C57.5622 71.3291 57.7527 72.2499 58.1337 73.139C58.5465 73.9963 58.7529 74.7902 58.7529 75.5205C58.7529 76.2191 58.5465 76.7906 58.1337 77.2352C57.7527 77.6797 57.2129 77.902 56.5143 77.902C55.8475 77.902 55.3394 77.521 54.9901 76.7589C54.6409 75.9968 54.4662 75.1236 54.4662 74.1392ZM55.9904 50.5148C55.2918 50.5148 54.7361 50.3243 54.3233 49.9432C53.9105 49.5622 53.7041 49.0065 53.7041 48.2762C53.7041 47.5458 53.9582 46.9267 54.4662 46.4186C54.9743 45.8788 55.5776 45.6089 56.2761 45.6089C56.9747 45.6089 57.5304 45.8153 57.9432 46.2281C58.3877 46.6091 58.61 47.1648 58.61 47.8951C58.61 48.6255 58.3401 49.2446 57.8003 49.7527C57.2923 50.2607 56.6889 50.5148 55.9904 50.5148ZM71.3849 59.6121C69.2892 59.6121 67.5745 60.3424 66.2409 61.8031C64.939 63.232 64.288 64.9466 64.288 66.9471C64.288 68.9476 64.9707 70.6464 66.3361 72.0435C67.7333 73.4407 69.4321 74.1392 71.4325 74.1392C73.2107 74.1392 74.8142 73.4883 76.2431 72.1864C76.7512 71.7419 77.1322 71.5196 77.3863 71.5196C77.6403 71.5196 77.8626 71.6148 78.0531 71.8054C78.2436 71.9959 78.3389 72.2023 78.3389 72.4245C78.3389 73.3454 77.4339 74.4885 75.624 75.8539C73.8458 77.2193 71.8136 77.902 69.5273 77.902C67.2728 77.902 65.3041 76.9811 63.6212 75.1395C61.97 73.2978 61.1444 71.0115 61.1444 68.2807C61.1444 64.7879 62.4622 61.8507 65.0977 59.4692C67.7333 57.0877 70.6387 55.897 73.814 55.897C75.1477 55.897 76.2273 56.1351 77.0529 56.6114C77.9102 57.056 78.3389 57.6434 78.3389 58.3737C78.3389 59.0723 78.1166 59.6438 77.672 60.0884C77.2592 60.5329 76.8465 60.7552 76.4337 60.7552C76.0209 60.7552 75.3064 60.5647 74.2903 60.1837C73.306 59.8026 72.3375 59.6121 71.3849 59.6121ZM94.6514 71.2338C94.8736 71.8054 95.3341 72.5833 96.0326 73.5677C96.763 74.5203 97.1281 75.2982 97.1281 75.9015C97.1281 76.5048 96.9694 76.997 96.6518 77.3781C96.3343 77.7273 95.9056 77.902 95.3658 77.902C94.0639 77.902 92.9049 76.5525 91.8888 73.8534L91.5078 72.8056C89.8884 76.2032 87.4593 77.902 84.2204 77.902C82.601 77.902 81.2515 77.3939 80.1719 76.3778C79.124 75.33 78.6001 74.0281 78.6001 72.4722C78.6001 70.0589 79.4257 67.9791 81.0768 66.2327C82.728 64.4862 84.8872 63.5495 87.5545 63.4225C86.9194 62.3111 86.205 61.4855 85.4112 60.9457C84.6491 60.3742 83.9505 60.0408 83.3154 59.9455C82.6804 59.8502 82.0771 59.8026 81.5055 59.8026C80.9657 59.7709 80.537 59.6438 80.2195 59.4216C79.902 59.1993 79.7432 58.7706 79.7432 58.1356C79.7432 57.4687 79.9972 56.9289 80.5053 56.5161C81.0451 56.1034 81.6802 55.897 82.4105 55.897C84.4744 55.897 86.5067 56.9289 88.5071 58.9929C90.5076 61.0569 92.254 64.2957 93.7464 68.7094L94.6514 71.2338ZM86.3638 65.9469C85.2206 65.9469 84.1887 66.3279 83.2678 67.09C82.3787 67.8521 81.9342 68.8364 81.9342 70.0431C81.9342 71.2497 82.3311 72.2658 83.1249 73.0914C83.9505 73.8852 84.9349 74.2821 86.078 74.2821C87.2211 74.2821 88.2055 73.8852 89.031 73.0914C89.8566 72.2658 90.2694 71.2973 90.2694 70.1859C90.2694 69.3921 90.1265 68.6618 89.8407 67.995C89.555 67.2964 89.3803 66.8677 89.3168 66.709C88.4912 66.2009 87.5069 65.9469 86.3638 65.9469Z" fill="#D87023"/>
    </svg>
    