<svg width="1440" height="1024" viewBox="0 0 1440 1024" fill="none" xmlns="http://www.w3.org/2000/svg">
    <circle cx="42.2876" cy="35.2886" r="44.7632" stroke="#1A1A1A" stroke-width="2"/>
    <circle cx="133.815" cy="35.2886" r="44.7632" stroke="#1A1A1A" stroke-width="2"/>
    <circle cx="225.341" cy="35.2886" r="44.7632" stroke="#1A1A1A" stroke-width="2"/>
    <circle cx="316.868" cy="35.2886" r="44.7632" stroke="#1A1A1A" stroke-width="2"/>
    <circle cx="408.394" cy="35.2886" r="44.7632" stroke="#1A1A1A" stroke-width="2"/>
    <circle cx="499.92" cy="35.2886" r="44.7632" stroke="#1A1A1A" stroke-width="2"/>
    <circle cx="591.447" cy="35.2886" r="44.7632" stroke="#1A1A1A" stroke-width="2"/>
    <circle cx="682.973" cy="35.2886" r="44.7632" stroke="#1A1A1A" stroke-width="2"/>
    <circle cx="774.5" cy="35.2886" r="44.7632" stroke="#1A1A1A" stroke-width="2"/>
    <circle cx="866.026" cy="35.2886" r="44.7632" stroke="#1A1A1A" stroke-width="2"/>
    <circle cx="957.552" cy="35.2886" r="44.7632" stroke="#1A1A1A" stroke-width="2"/>
    <circle cx="1049.08" cy="35.2886" r="44.7632" stroke="#1A1A1A" stroke-width="2"/>
    <circle cx="1140.6" cy="35.2886" r="44.7632" stroke="#1A1A1A" stroke-width="2"/>
    <circle cx="1232.13" cy="35.2886" r="44.7632" stroke="#1A1A1A" stroke-width="2"/>
    <circle cx="1323.66" cy="35.2886" r="44.7632" stroke="#1A1A1A" stroke-width="2"/>
    <circle cx="1415.18" cy="35.2886" r="44.7632" stroke="#1A1A1A" stroke-width="2"/>
    <circle cx="42.2876" cy="126.816" r="44.7632" stroke="#1A1A1A" stroke-width="2"/>
    <circle cx="133.815" cy="126.816" r="44.7632" stroke="#1A1A1A" stroke-width="2"/>
    <circle cx="225.341" cy="126.816" r="44.7632" stroke="#1A1A1A" stroke-width="2"/>
    <circle cx="316.868" cy="126.816" r="44.7632" stroke="#1A1A1A" stroke-width="2"/>
    <circle cx="408.394" cy="126.816" r="44.7632" stroke="#1A1A1A" stroke-width="2"/>
    <circle cx="499.92" cy="126.816" r="44.7632" stroke="#1A1A1A" stroke-width="2"/>
    <circle cx="591.447" cy="126.816" r="44.7632" stroke="#1A1A1A" stroke-width="2"/>
    <circle cx="682.973" cy="126.816" r="44.7632" stroke="#1A1A1A" stroke-width="2"/>
    <circle cx="774.5" cy="126.816" r="44.7632" stroke="#1A1A1A" stroke-width="2"/>
    <circle cx="866.026" cy="126.816" r="44.7632" stroke="#1A1A1A" stroke-width="2"/>
    <circle cx="957.552" cy="126.816" r="44.7632" stroke="#1A1A1A" stroke-width="2"/>
    <circle cx="1049.08" cy="126.816" r="44.7632" stroke="#1A1A1A" stroke-width="2"/>
    <circle cx="1140.6" cy="126.816" r="44.7632" stroke="#1A1A1A" stroke-width="2"/>
    <circle cx="1232.13" cy="126.816" r="44.7632" stroke="#1A1A1A" stroke-width="2"/>
    <circle cx="1323.66" cy="126.816" r="44.7632" stroke="#1A1A1A" stroke-width="2"/>
    <circle cx="1415.18" cy="126.816" r="44.7632" stroke="#1A1A1A" stroke-width="2"/>
    <circle cx="42.2876" cy="218.342" r="44.7632" stroke="#1A1A1A" stroke-width="2"/>
    <circle cx="133.815" cy="218.342" r="44.7632" stroke="#1A1A1A" stroke-width="2"/>
    <circle cx="225.341" cy="218.342" r="44.7632" stroke="#1A1A1A" stroke-width="2"/>
    <circle cx="316.868" cy="218.342" r="44.7632" stroke="#1A1A1A" stroke-width="2"/>
    <circle cx="408.394" cy="218.342" r="44.7632" stroke="#1A1A1A" stroke-width="2"/>
    <circle cx="499.92" cy="218.342" r="44.7632" stroke="#1A1A1A" stroke-width="2"/>
    <circle cx="591.447" cy="218.342" r="44.7632" stroke="#1A1A1A" stroke-width="2"/>
    <circle cx="682.973" cy="218.342" r="44.7632" stroke="#1A1A1A" stroke-width="2"/>
    <circle cx="774.5" cy="218.342" r="44.7632" stroke="#1A1A1A" stroke-width="2"/>
    <circle cx="866.026" cy="218.342" r="44.7632" stroke="#1A1A1A" stroke-width="2"/>
    <circle cx="957.552" cy="218.342" r="44.7632" stroke="#1A1A1A" stroke-width="2"/>
    <circle cx="1049.08" cy="218.342" r="44.7632" stroke="#1A1A1A" stroke-width="2"/>
    <circle cx="1140.6" cy="218.342" r="44.7632" stroke="#1A1A1A" stroke-width="2"/>
    <circle cx="1232.13" cy="218.342" r="44.7632" stroke="#1A1A1A" stroke-width="2"/>
    <circle cx="1323.66" cy="218.342" r="44.7632" stroke="#1A1A1A" stroke-width="2"/>
    <circle cx="1415.18" cy="218.342" r="44.7632" stroke="#1A1A1A" stroke-width="2"/>
    <circle cx="42.2876" cy="309.869" r="44.7632" stroke="#1A1A1A" stroke-width="2"/>
    <circle cx="133.815" cy="309.869" r="44.7632" stroke="#1A1A1A" stroke-width="2"/>
    <circle cx="225.341" cy="309.869" r="44.7632" stroke="#1A1A1A" stroke-width="2"/>
    <circle cx="316.868" cy="309.869" r="44.7632" stroke="#1A1A1A" stroke-width="2"/>
    <circle cx="408.394" cy="309.869" r="44.7632" stroke="#1A1A1A" stroke-width="2"/>
    <circle cx="499.92" cy="309.869" r="44.7632" stroke="#1A1A1A" stroke-width="2"/>
    <circle cx="591.447" cy="309.869" r="44.7632" stroke="#1A1A1A" stroke-width="2"/>
    <circle cx="682.973" cy="309.869" r="44.7632" stroke="#1A1A1A" stroke-width="2"/>
    <circle cx="774.5" cy="309.869" r="44.7632" stroke="#1A1A1A" stroke-width="2"/>
    <circle cx="866.026" cy="309.869" r="44.7632" stroke="#1A1A1A" stroke-width="2"/>
    <circle cx="957.552" cy="309.869" r="44.7632" stroke="#1A1A1A" stroke-width="2"/>
    <circle cx="1049.08" cy="309.869" r="44.7632" stroke="#1A1A1A" stroke-width="2"/>
    <circle cx="1140.6" cy="309.869" r="44.7632" stroke="#1A1A1A" stroke-width="2"/>
    <circle cx="1232.13" cy="309.869" r="44.7632" stroke="#1A1A1A" stroke-width="2"/>
    <circle cx="1323.66" cy="309.869" r="44.7632" stroke="#1A1A1A" stroke-width="2"/>
    <circle cx="1415.18" cy="309.869" r="44.7632" stroke="#1A1A1A" stroke-width="2"/>
    <circle cx="42.2876" cy="401.395" r="44.7632" stroke="#1A1A1A" stroke-width="2"/>
    <circle cx="133.815" cy="401.395" r="44.7632" stroke="#1A1A1A" stroke-width="2"/>
    <circle cx="225.341" cy="401.395" r="44.7632" stroke="#1A1A1A" stroke-width="2"/>
    <circle cx="316.868" cy="401.395" r="44.7632" stroke="#1A1A1A" stroke-width="2"/>
    <circle cx="408.394" cy="401.395" r="44.7632" stroke="#1A1A1A" stroke-width="2"/>
    <circle cx="499.92" cy="401.395" r="44.7632" stroke="#1A1A1A" stroke-width="2"/>
    <circle cx="591.447" cy="401.395" r="44.7632" stroke="#1A1A1A" stroke-width="2"/>
    <circle cx="682.973" cy="401.395" r="44.7632" stroke="#1A1A1A" stroke-width="2"/>
    <circle cx="774.5" cy="401.395" r="44.7632" stroke="#1A1A1A" stroke-width="2"/>
    <circle cx="866.026" cy="401.395" r="44.7632" stroke="#1A1A1A" stroke-width="2"/>
    <circle cx="957.552" cy="401.395" r="44.7632" stroke="#1A1A1A" stroke-width="2"/>
    <circle cx="1049.08" cy="401.395" r="44.7632" stroke="#1A1A1A" stroke-width="2"/>
    <circle cx="1140.6" cy="401.395" r="44.7632" stroke="#1A1A1A" stroke-width="2"/>
    <circle cx="1232.13" cy="401.395" r="44.7632" stroke="#1A1A1A" stroke-width="2"/>
    <circle cx="1323.66" cy="401.395" r="44.7632" stroke="#1A1A1A" stroke-width="2"/>
    <circle cx="1415.18" cy="401.395" r="44.7632" stroke="#1A1A1A" stroke-width="2"/>
    <circle cx="42.2876" cy="492.921" r="44.7632" stroke="#1A1A1A" stroke-width="2"/>
    <circle cx="133.815" cy="492.921" r="44.7632" stroke="#1A1A1A" stroke-width="2"/>
    <circle cx="225.341" cy="492.921" r="44.7632" stroke="#1A1A1A" stroke-width="2"/>
    <circle cx="316.868" cy="492.921" r="44.7632" stroke="#1A1A1A" stroke-width="2"/>
    <circle cx="408.394" cy="492.921" r="44.7632" stroke="#1A1A1A" stroke-width="2"/>
    <circle cx="499.92" cy="492.921" r="44.7632" stroke="#1A1A1A" stroke-width="2"/>
    <circle cx="591.447" cy="492.921" r="44.7632" stroke="#1A1A1A" stroke-width="2"/>
    <circle cx="682.973" cy="492.921" r="44.7632" stroke="#1A1A1A" stroke-width="2"/>
    <circle cx="774.5" cy="492.921" r="44.7632" stroke="#1A1A1A" stroke-width="2"/>
    <circle cx="866.026" cy="492.921" r="44.7632" stroke="#1A1A1A" stroke-width="2"/>
    <circle cx="957.552" cy="492.921" r="44.7632" stroke="#1A1A1A" stroke-width="2"/>
    <circle cx="1049.08" cy="492.921" r="44.7632" stroke="#1A1A1A" stroke-width="2"/>
    <circle cx="1140.6" cy="492.921" r="44.7632" stroke="#1A1A1A" stroke-width="2"/>
    <circle cx="1232.13" cy="492.921" r="44.7632" stroke="#1A1A1A" stroke-width="2"/>
    <circle cx="1323.66" cy="492.921" r="44.7632" stroke="#1A1A1A" stroke-width="2"/>
    <circle cx="1415.18" cy="492.921" r="44.7632" stroke="#1A1A1A" stroke-width="2"/>
    <circle cx="42.2876" cy="584.448" r="44.7632" stroke="#1A1A1A" stroke-width="2"/>
    <circle cx="133.815" cy="584.448" r="44.7632" stroke="#1A1A1A" stroke-width="2"/>
    <circle cx="225.341" cy="584.448" r="44.7632" stroke="#1A1A1A" stroke-width="2"/>
    <circle cx="316.868" cy="584.448" r="44.7632" stroke="#1A1A1A" stroke-width="2"/>
    <circle cx="408.394" cy="584.448" r="44.7632" stroke="#1A1A1A" stroke-width="2"/>
    <circle cx="499.92" cy="584.448" r="44.7632" stroke="#1A1A1A" stroke-width="2"/>
    <circle cx="591.447" cy="584.448" r="44.7632" stroke="#1A1A1A" stroke-width="2"/>
    <circle cx="682.973" cy="584.448" r="44.7632" stroke="#1A1A1A" stroke-width="2"/>
    <circle cx="774.5" cy="584.448" r="44.7632" stroke="#1A1A1A" stroke-width="2"/>
    <circle cx="866.026" cy="584.448" r="44.7632" stroke="#1A1A1A" stroke-width="2"/>
    <circle cx="957.552" cy="584.448" r="44.7632" stroke="#1A1A1A" stroke-width="2"/>
    <circle cx="1049.08" cy="584.448" r="44.7632" stroke="#1A1A1A" stroke-width="2"/>
    <circle cx="1140.6" cy="584.448" r="44.7632" stroke="#1A1A1A" stroke-width="2"/>
    <circle cx="1232.13" cy="584.448" r="44.7632" stroke="#1A1A1A" stroke-width="2"/>
    <circle cx="1323.66" cy="584.448" r="44.7632" stroke="#1A1A1A" stroke-width="2"/>
    <circle cx="1415.18" cy="584.448" r="44.7632" stroke="#1A1A1A" stroke-width="2"/>
    <circle cx="42.2876" cy="675.974" r="44.7632" stroke="#1A1A1A" stroke-width="2"/>
    <circle cx="133.815" cy="675.974" r="44.7632" stroke="#1A1A1A" stroke-width="2"/>
    <circle cx="225.341" cy="675.974" r="44.7632" stroke="#1A1A1A" stroke-width="2"/>
    <circle cx="316.868" cy="675.974" r="44.7632" stroke="#1A1A1A" stroke-width="2"/>
    <circle cx="408.394" cy="675.974" r="44.7632" stroke="#1A1A1A" stroke-width="2"/>
    <circle cx="499.92" cy="675.974" r="44.7632" stroke="#1A1A1A" stroke-width="2"/>
    <circle cx="591.447" cy="675.974" r="44.7632" stroke="#1A1A1A" stroke-width="2"/>
    <circle cx="682.973" cy="675.974" r="44.7632" stroke="#1A1A1A" stroke-width="2"/>
    <circle cx="774.5" cy="675.974" r="44.7632" stroke="#1A1A1A" stroke-width="2"/>
    <circle cx="866.026" cy="675.974" r="44.7632" stroke="#1A1A1A" stroke-width="2"/>
    <circle cx="957.552" cy="675.974" r="44.7632" stroke="#1A1A1A" stroke-width="2"/>
    <circle cx="1049.08" cy="675.974" r="44.7632" stroke="#1A1A1A" stroke-width="2"/>
    <circle cx="1140.6" cy="675.974" r="44.7632" stroke="#1A1A1A" stroke-width="2"/>
    <circle cx="1232.13" cy="675.974" r="44.7632" stroke="#1A1A1A" stroke-width="2"/>
    <circle cx="1323.66" cy="675.974" r="44.7632" stroke="#1A1A1A" stroke-width="2"/>
    <circle cx="1415.18" cy="675.974" r="44.7632" stroke="#1A1A1A" stroke-width="2"/>
    <circle cx="42.2876" cy="767.5" r="44.7632" stroke="#1A1A1A" stroke-width="2"/>
    <circle cx="133.815" cy="767.5" r="44.7632" stroke="#1A1A1A" stroke-width="2"/>
    <circle cx="225.341" cy="767.5" r="44.7632" stroke="#1A1A1A" stroke-width="2"/>
    <circle cx="316.868" cy="767.5" r="44.7632" stroke="#1A1A1A" stroke-width="2"/>
    <circle cx="408.394" cy="767.5" r="44.7632" stroke="#1A1A1A" stroke-width="2"/>
    <circle cx="499.92" cy="767.5" r="44.7632" stroke="#1A1A1A" stroke-width="2"/>
    <circle cx="591.447" cy="767.5" r="44.7632" stroke="#1A1A1A" stroke-width="2"/>
    <circle cx="682.973" cy="767.5" r="44.7632" stroke="#1A1A1A" stroke-width="2"/>
    <circle cx="774.5" cy="767.5" r="44.7632" stroke="#1A1A1A" stroke-width="2"/>
    <circle cx="866.026" cy="767.5" r="44.7632" stroke="#1A1A1A" stroke-width="2"/>
    <circle cx="957.552" cy="767.5" r="44.7632" stroke="#1A1A1A" stroke-width="2"/>
    <circle cx="1049.08" cy="767.5" r="44.7632" stroke="#1A1A1A" stroke-width="2"/>
    <circle cx="1140.6" cy="767.5" r="44.7632" stroke="#1A1A1A" stroke-width="2"/>
    <circle cx="1232.13" cy="767.5" r="44.7632" stroke="#1A1A1A" stroke-width="2"/>
    <circle cx="1323.66" cy="767.5" r="44.7632" stroke="#1A1A1A" stroke-width="2"/>
    <circle cx="1415.18" cy="767.5" r="44.7632" stroke="#1A1A1A" stroke-width="2"/>
    <circle cx="42.2876" cy="859.027" r="44.7632" stroke="#1A1A1A" stroke-width="2"/>
    <circle cx="133.815" cy="859.027" r="44.7632" stroke="#1A1A1A" stroke-width="2"/>
    <circle cx="225.341" cy="859.027" r="44.7632" stroke="#1A1A1A" stroke-width="2"/>
    <circle cx="316.868" cy="859.027" r="44.7632" stroke="#1A1A1A" stroke-width="2"/>
    <circle cx="408.394" cy="859.027" r="44.7632" stroke="#1A1A1A" stroke-width="2"/>
    <circle cx="499.92" cy="859.027" r="44.7632" stroke="#1A1A1A" stroke-width="2"/>
    <circle cx="591.447" cy="859.027" r="44.7632" stroke="#1A1A1A" stroke-width="2"/>
    <circle cx="682.973" cy="859.027" r="44.7632" stroke="#1A1A1A" stroke-width="2"/>
    <circle cx="774.5" cy="859.027" r="44.7632" stroke="#1A1A1A" stroke-width="2"/>
    <circle cx="866.026" cy="859.027" r="44.7632" stroke="#1A1A1A" stroke-width="2"/>
    <circle cx="957.552" cy="859.027" r="44.7632" stroke="#1A1A1A" stroke-width="2"/>
    <circle cx="1049.08" cy="859.027" r="44.7632" stroke="#1A1A1A" stroke-width="2"/>
    <circle cx="1140.6" cy="859.027" r="44.7632" stroke="#1A1A1A" stroke-width="2"/>
    <circle cx="1232.13" cy="859.027" r="44.7632" stroke="#1A1A1A" stroke-width="2"/>
    <circle cx="1323.66" cy="859.027" r="44.7632" stroke="#1A1A1A" stroke-width="2"/>
    <circle cx="1415.18" cy="859.027" r="44.7632" stroke="#1A1A1A" stroke-width="2"/>
    <circle cx="42.2876" cy="950.553" r="44.7632" stroke="#1A1A1A" stroke-width="2"/>
    <circle cx="133.815" cy="950.553" r="44.7632" stroke="#1A1A1A" stroke-width="2"/>
    <circle cx="225.341" cy="950.553" r="44.7632" stroke="#1A1A1A" stroke-width="2"/>
    <circle cx="316.868" cy="950.553" r="44.7632" stroke="#1A1A1A" stroke-width="2"/>
    <circle cx="408.394" cy="950.553" r="44.7632" stroke="#1A1A1A" stroke-width="2"/>
    <circle cx="499.92" cy="950.553" r="44.7632" stroke="#1A1A1A" stroke-width="2"/>
    <circle cx="591.447" cy="950.553" r="44.7632" stroke="#1A1A1A" stroke-width="2"/>
    <circle cx="682.973" cy="950.553" r="44.7632" stroke="#1A1A1A" stroke-width="2"/>
    <circle cx="774.5" cy="950.553" r="44.7632" stroke="#1A1A1A" stroke-width="2"/>
    <circle cx="866.026" cy="950.553" r="44.7632" stroke="#1A1A1A" stroke-width="2"/>
    <circle cx="957.552" cy="950.553" r="44.7632" stroke="#1A1A1A" stroke-width="2"/>
    <circle cx="1049.08" cy="950.553" r="44.7632" stroke="#1A1A1A" stroke-width="2"/>
    <circle cx="1140.6" cy="950.553" r="44.7632" stroke="#1A1A1A" stroke-width="2"/>
    <circle cx="1232.13" cy="950.553" r="44.7632" stroke="#1A1A1A" stroke-width="2"/>
    <circle cx="1323.66" cy="950.553" r="44.7632" stroke="#1A1A1A" stroke-width="2"/>
    <circle cx="1415.18" cy="950.553" r="44.7632" stroke="#1A1A1A" stroke-width="2"/>
    <circle cx="42.2876" cy="1042.08" r="44.7632" stroke="#1A1A1A" stroke-width="2"/>
    <circle cx="133.815" cy="1042.08" r="44.7632" stroke="#1A1A1A" stroke-width="2"/>
    <circle cx="225.341" cy="1042.08" r="44.7632" stroke="#1A1A1A" stroke-width="2"/>
    <circle cx="316.868" cy="1042.08" r="44.7632" stroke="#1A1A1A" stroke-width="2"/>
    <circle cx="408.394" cy="1042.08" r="44.7632" stroke="#1A1A1A" stroke-width="2"/>
    <circle cx="499.92" cy="1042.08" r="44.7632" stroke="#1A1A1A" stroke-width="2"/>
    <circle cx="591.447" cy="1042.08" r="44.7632" stroke="#1A1A1A" stroke-width="2"/>
    <circle cx="682.973" cy="1042.08" r="44.7632" stroke="#1A1A1A" stroke-width="2"/>
    <circle cx="774.5" cy="1042.08" r="44.7632" stroke="#1A1A1A" stroke-width="2"/>
    <circle cx="866.026" cy="1042.08" r="44.7632" stroke="#1A1A1A" stroke-width="2"/>
    <circle cx="957.552" cy="1042.08" r="44.7632" stroke="#1A1A1A" stroke-width="2"/>
    <circle cx="1049.08" cy="1042.08" r="44.7632" stroke="#1A1A1A" stroke-width="2"/>
    <circle cx="1140.6" cy="1042.08" r="44.7632" stroke="#1A1A1A" stroke-width="2"/>
    <circle cx="1232.13" cy="1042.08" r="44.7632" stroke="#1A1A1A" stroke-width="2"/>
    <circle cx="1323.66" cy="1042.08" r="44.7632" stroke="#1A1A1A" stroke-width="2"/>
    <circle cx="1415.18" cy="1042.08" r="44.7632" stroke="#1A1A1A" stroke-width="2"/>
    </svg>
    