<svg width="19" height="20" viewBox="0 0 19 20" fill="none" xmlns="http://www.w3.org/2000/svg">
    <path d="M9.75488 5.50781C7.27051 5.50781 5.2666 7.51172 5.2666 9.99609C5.2666 12.4805 7.27051 14.4844 9.75488 14.4844C12.2393 14.4844 14.2432 12.4805 14.2432 9.99609C14.2432 7.51172 12.2393 5.50781 9.75488 5.50781ZM9.75488 12.9141C8.14941 12.9141 6.83691 11.6055 6.83691 9.99609C6.83691 8.38672 8.14551 7.07812 9.75488 7.07812C11.3643 7.07812 12.6729 8.38672 12.6729 9.99609C12.6729 11.6055 11.3604 12.9141 9.75488 12.9141ZM15.4736 5.32422C15.4736 5.90625 15.0049 6.37109 14.4268 6.37109C13.8447 6.37109 13.3799 5.90234 13.3799 5.32422C13.3799 4.74609 13.8486 4.27734 14.4268 4.27734C15.0049 4.27734 15.4736 4.74609 15.4736 5.32422ZM18.4463 6.38672C18.3799 4.98438 18.0596 3.74219 17.0322 2.71875C16.0088 1.69531 14.7666 1.375 13.3643 1.30469C11.9189 1.22266 7.58691 1.22266 6.1416 1.30469C4.74316 1.37109 3.50098 1.69141 2.47363 2.71484C1.44629 3.73828 1.12988 4.98047 1.05957 6.38281C0.977539 7.82812 0.977539 12.1602 1.05957 13.6055C1.12598 15.0078 1.44629 16.25 2.47363 17.2734C3.50098 18.2969 4.73926 18.6172 6.1416 18.6875C7.58691 18.7695 11.9189 18.7695 13.3643 18.6875C14.7666 18.6211 16.0088 18.3008 17.0322 17.2734C18.0557 16.25 18.376 15.0078 18.4463 13.6055C18.5283 12.1602 18.5283 7.83203 18.4463 6.38672ZM16.5791 15.1562C16.2744 15.9219 15.6846 16.5117 14.915 16.8203C13.7627 17.2773 11.0283 17.1719 9.75488 17.1719C8.48145 17.1719 5.74316 17.2734 4.59473 16.8203C3.8291 16.5156 3.23926 15.9258 2.93066 15.1562C2.47363 14.0039 2.5791 11.2695 2.5791 9.99609C2.5791 8.72266 2.47754 5.98438 2.93066 4.83594C3.23535 4.07031 3.8252 3.48047 4.59473 3.17187C5.74707 2.71484 8.48145 2.82031 9.75488 2.82031C11.0283 2.82031 13.7666 2.71875 14.915 3.17187C15.6807 3.47656 16.2705 4.06641 16.5791 4.83594C17.0361 5.98828 16.9307 8.72266 16.9307 9.99609C16.9307 11.2695 17.0361 14.0078 16.5791 15.1562Z" fill="white"/>
    </svg>
    