<svg width="1281" height="776" viewBox="0 0 1281 776" fill="none" xmlns="http://www.w3.org/2000/svg">
    <circle cx="-45.7124" cy="45.2886" r="44.7632" stroke="#EAE9DE" stroke-width="2"/>
    <circle cx="45.8149" cy="45.2886" r="44.7632" stroke="#EAE9DE" stroke-width="2"/>
    <circle cx="137.341" cy="45.2886" r="44.7632" stroke="#EAE9DE" stroke-width="2"/>
    <circle cx="228.868" cy="45.2886" r="44.7632" stroke="#EAE9DE" stroke-width="2"/>
    <circle cx="320.394" cy="45.2886" r="44.7632" stroke="#EAE9DE" stroke-width="2"/>
    <circle cx="411.92" cy="45.2886" r="44.7632" stroke="#EAE9DE" stroke-width="2"/>
    <circle cx="503.447" cy="45.2886" r="44.7632" stroke="#EAE9DE" stroke-width="2"/>
    <circle cx="594.973" cy="45.2886" r="44.7632" stroke="#EAE9DE" stroke-width="2"/>
    <circle cx="686.5" cy="45.2886" r="44.7632" stroke="#EAE9DE" stroke-width="2"/>
    <circle cx="778.026" cy="45.2886" r="44.7632" stroke="#EAE9DE" stroke-width="2"/>
    <circle cx="869.552" cy="45.2886" r="44.7632" stroke="#EAE9DE" stroke-width="2"/>
    <circle cx="961.079" cy="45.2886" r="44.7632" stroke="#EAE9DE" stroke-width="2"/>
    <circle cx="1052.6" cy="45.2886" r="44.7632" stroke="#EAE9DE" stroke-width="2"/>
    <circle cx="1144.13" cy="45.2886" r="44.7632" stroke="#EAE9DE" stroke-width="2"/>
    <circle cx="1235.66" cy="45.2886" r="44.7632" stroke="#EAE9DE" stroke-width="2"/>
    <circle cx="-45.7124" cy="136.816" r="44.7632" stroke="#EAE9DE" stroke-width="2"/>
    <circle cx="45.8148" cy="136.816" r="44.7632" stroke="#EAE9DE" stroke-width="2"/>
    <circle cx="137.341" cy="136.816" r="44.7632" stroke="#EAE9DE" stroke-width="2"/>
    <circle cx="228.868" cy="136.816" r="44.7632" stroke="#EAE9DE" stroke-width="2"/>
    <circle cx="320.394" cy="136.816" r="44.7632" stroke="#EAE9DE" stroke-width="2"/>
    <circle cx="411.92" cy="136.816" r="44.7632" stroke="#EAE9DE" stroke-width="2"/>
    <circle cx="503.447" cy="136.816" r="44.7632" stroke="#EAE9DE" stroke-width="2"/>
    <circle cx="594.973" cy="136.816" r="44.7632" stroke="#EAE9DE" stroke-width="2"/>
    <circle cx="686.499" cy="136.816" r="44.7632" stroke="#EAE9DE" stroke-width="2"/>
    <circle cx="778.026" cy="136.816" r="44.7632" stroke="#EAE9DE" stroke-width="2"/>
    <circle cx="869.552" cy="136.816" r="44.7632" stroke="#EAE9DE" stroke-width="2"/>
    <circle cx="961.079" cy="136.816" r="44.7632" stroke="#EAE9DE" stroke-width="2"/>
    <circle cx="1052.6" cy="136.816" r="44.7632" stroke="#EAE9DE" stroke-width="2"/>
    <circle cx="1144.13" cy="136.816" r="44.7632" stroke="#EAE9DE" stroke-width="2"/>
    <circle cx="1235.66" cy="136.816" r="44.7632" stroke="#EAE9DE" stroke-width="2"/>
    <circle cx="-45.7124" cy="228.342" r="44.7632" stroke="#EAE9DE" stroke-width="2"/>
    <circle cx="45.8149" cy="228.342" r="44.7632" stroke="#EAE9DE" stroke-width="2"/>
    <circle cx="137.341" cy="228.342" r="44.7632" stroke="#EAE9DE" stroke-width="2"/>
    <circle cx="228.868" cy="228.342" r="44.7632" stroke="#EAE9DE" stroke-width="2"/>
    <circle cx="320.394" cy="228.342" r="44.7632" stroke="#EAE9DE" stroke-width="2"/>
    <circle cx="411.92" cy="228.342" r="44.7632" stroke="#EAE9DE" stroke-width="2"/>
    <circle cx="503.447" cy="228.342" r="44.7632" stroke="#EAE9DE" stroke-width="2"/>
    <circle cx="594.973" cy="228.342" r="44.7632" stroke="#EAE9DE" stroke-width="2"/>
    <circle cx="686.5" cy="228.342" r="44.7632" stroke="#EAE9DE" stroke-width="2"/>
    <circle cx="778.026" cy="228.342" r="44.7632" stroke="#EAE9DE" stroke-width="2"/>
    <circle cx="869.552" cy="228.342" r="44.7632" stroke="#EAE9DE" stroke-width="2"/>
    <circle cx="961.079" cy="228.342" r="44.7632" stroke="#EAE9DE" stroke-width="2"/>
    <circle cx="1052.6" cy="228.342" r="44.7632" stroke="#EAE9DE" stroke-width="2"/>
    <circle cx="1144.13" cy="228.342" r="44.7632" stroke="#EAE9DE" stroke-width="2"/>
    <circle cx="1235.66" cy="228.342" r="44.7632" stroke="#EAE9DE" stroke-width="2"/>
    <circle cx="-45.7124" cy="319.869" r="44.7632" stroke="#EAE9DE" stroke-width="2"/>
    <circle cx="45.8149" cy="319.869" r="44.7632" stroke="#EAE9DE" stroke-width="2"/>
    <circle cx="137.341" cy="319.869" r="44.7632" stroke="#EAE9DE" stroke-width="2"/>
    <circle cx="228.868" cy="319.869" r="44.7632" stroke="#EAE9DE" stroke-width="2"/>
    <circle cx="320.394" cy="319.869" r="44.7632" stroke="#EAE9DE" stroke-width="2"/>
    <circle cx="411.92" cy="319.869" r="44.7632" stroke="#EAE9DE" stroke-width="2"/>
    <circle cx="503.447" cy="319.869" r="44.7632" stroke="#EAE9DE" stroke-width="2"/>
    <circle cx="594.973" cy="319.869" r="44.7632" stroke="#EAE9DE" stroke-width="2"/>
    <circle cx="686.5" cy="319.869" r="44.7632" stroke="#EAE9DE" stroke-width="2"/>
    <circle cx="778.026" cy="319.869" r="44.7632" stroke="#EAE9DE" stroke-width="2"/>
    <circle cx="869.552" cy="319.869" r="44.7632" stroke="#EAE9DE" stroke-width="2"/>
    <circle cx="961.079" cy="319.869" r="44.7632" stroke="#EAE9DE" stroke-width="2"/>
    <circle cx="1052.6" cy="319.869" r="44.7632" stroke="#EAE9DE" stroke-width="2"/>
    <circle cx="1144.13" cy="319.869" r="44.7632" stroke="#EAE9DE" stroke-width="2"/>
    <circle cx="1235.66" cy="319.869" r="44.7632" stroke="#EAE9DE" stroke-width="2"/>
    <circle cx="-45.7124" cy="411.395" r="44.7632" stroke="#EAE9DE" stroke-width="2"/>
    <circle cx="45.8148" cy="411.395" r="44.7632" stroke="#EAE9DE" stroke-width="2"/>
    <circle cx="137.341" cy="411.395" r="44.7632" stroke="#EAE9DE" stroke-width="2"/>
    <circle cx="228.868" cy="411.395" r="44.7632" stroke="#EAE9DE" stroke-width="2"/>
    <circle cx="320.394" cy="411.395" r="44.7632" stroke="#EAE9DE" stroke-width="2"/>
    <circle cx="411.92" cy="411.395" r="44.7632" stroke="#EAE9DE" stroke-width="2"/>
    <circle cx="503.447" cy="411.395" r="44.7632" stroke="#EAE9DE" stroke-width="2"/>
    <circle cx="594.973" cy="411.395" r="44.7632" stroke="#EAE9DE" stroke-width="2"/>
    <circle cx="686.499" cy="411.395" r="44.7632" stroke="#EAE9DE" stroke-width="2"/>
    <circle cx="778.026" cy="411.395" r="44.7632" stroke="#EAE9DE" stroke-width="2"/>
    <circle cx="869.552" cy="411.395" r="44.7632" stroke="#EAE9DE" stroke-width="2"/>
    <circle cx="961.079" cy="411.395" r="44.7632" stroke="#EAE9DE" stroke-width="2"/>
    <circle cx="1052.6" cy="411.395" r="44.7632" stroke="#EAE9DE" stroke-width="2"/>
    <circle cx="1144.13" cy="411.395" r="44.7632" stroke="#EAE9DE" stroke-width="2"/>
    <circle cx="1235.66" cy="411.395" r="44.7632" stroke="#EAE9DE" stroke-width="2"/>
    <circle cx="-45.7124" cy="502.921" r="44.7632" stroke="#EAE9DE" stroke-width="2"/>
    <circle cx="45.8149" cy="502.921" r="44.7632" stroke="#EAE9DE" stroke-width="2"/>
    <circle cx="137.341" cy="502.921" r="44.7632" stroke="#EAE9DE" stroke-width="2"/>
    <circle cx="228.868" cy="502.921" r="44.7632" stroke="#EAE9DE" stroke-width="2"/>
    <circle cx="320.394" cy="502.921" r="44.7632" stroke="#EAE9DE" stroke-width="2"/>
    <circle cx="411.92" cy="502.921" r="44.7632" stroke="#EAE9DE" stroke-width="2"/>
    <circle cx="503.447" cy="502.921" r="44.7632" stroke="#EAE9DE" stroke-width="2"/>
    <circle cx="594.973" cy="502.921" r="44.7632" stroke="#EAE9DE" stroke-width="2"/>
    <circle cx="686.5" cy="502.921" r="44.7632" stroke="#EAE9DE" stroke-width="2"/>
    <circle cx="778.026" cy="502.921" r="44.7632" stroke="#EAE9DE" stroke-width="2"/>
    <circle cx="869.552" cy="502.921" r="44.7632" stroke="#EAE9DE" stroke-width="2"/>
    <circle cx="961.079" cy="502.921" r="44.7632" stroke="#EAE9DE" stroke-width="2"/>
    <circle cx="1052.6" cy="502.921" r="44.7632" stroke="#EAE9DE" stroke-width="2"/>
    <circle cx="1144.13" cy="502.921" r="44.7632" stroke="#EAE9DE" stroke-width="2"/>
    <circle cx="1235.66" cy="502.921" r="44.7632" stroke="#EAE9DE" stroke-width="2"/>
    <circle cx="-45.7124" cy="594.448" r="44.7632" stroke="#EAE9DE" stroke-width="2"/>
    <circle cx="45.8148" cy="594.448" r="44.7632" stroke="#EAE9DE" stroke-width="2"/>
    <circle cx="137.341" cy="594.448" r="44.7632" stroke="#EAE9DE" stroke-width="2"/>
    <circle cx="228.868" cy="594.448" r="44.7632" stroke="#EAE9DE" stroke-width="2"/>
    <circle cx="320.394" cy="594.448" r="44.7632" stroke="#EAE9DE" stroke-width="2"/>
    <circle cx="411.92" cy="594.448" r="44.7632" stroke="#EAE9DE" stroke-width="2"/>
    <circle cx="503.447" cy="594.448" r="44.7632" stroke="#EAE9DE" stroke-width="2"/>
    <circle cx="594.973" cy="594.448" r="44.7632" stroke="#EAE9DE" stroke-width="2"/>
    <circle cx="686.499" cy="594.448" r="44.7632" stroke="#EAE9DE" stroke-width="2"/>
    <circle cx="778.026" cy="594.448" r="44.7632" stroke="#EAE9DE" stroke-width="2"/>
    <circle cx="869.552" cy="594.448" r="44.7632" stroke="#EAE9DE" stroke-width="2"/>
    <circle cx="961.079" cy="594.448" r="44.7632" stroke="#EAE9DE" stroke-width="2"/>
    <circle cx="1052.6" cy="594.448" r="44.7632" stroke="#EAE9DE" stroke-width="2"/>
    <circle cx="1144.13" cy="594.448" r="44.7632" stroke="#EAE9DE" stroke-width="2"/>
    <circle cx="1235.66" cy="594.448" r="44.7632" stroke="#EAE9DE" stroke-width="2"/>
    <circle cx="-45.7124" cy="685.974" r="44.7632" stroke="#EAE9DE" stroke-width="2"/>
    <circle cx="45.8149" cy="685.974" r="44.7632" stroke="#EAE9DE" stroke-width="2"/>
    <circle cx="137.341" cy="685.974" r="44.7632" stroke="#EAE9DE" stroke-width="2"/>
    <circle cx="228.868" cy="685.974" r="44.7632" stroke="#EAE9DE" stroke-width="2"/>
    <circle cx="320.394" cy="685.974" r="44.7632" stroke="#EAE9DE" stroke-width="2"/>
    <circle cx="411.92" cy="685.974" r="44.7632" stroke="#EAE9DE" stroke-width="2"/>
    <circle cx="503.447" cy="685.974" r="44.7632" stroke="#EAE9DE" stroke-width="2"/>
    <circle cx="594.973" cy="685.974" r="44.7632" stroke="#EAE9DE" stroke-width="2"/>
    <circle cx="686.5" cy="685.974" r="44.7632" stroke="#EAE9DE" stroke-width="2"/>
    <circle cx="778.026" cy="685.974" r="44.7632" stroke="#EAE9DE" stroke-width="2"/>
    <circle cx="869.552" cy="685.974" r="44.7632" stroke="#EAE9DE" stroke-width="2"/>
    <circle cx="961.079" cy="685.974" r="44.7632" stroke="#EAE9DE" stroke-width="2"/>
    <circle cx="1052.6" cy="685.974" r="44.7632" stroke="#EAE9DE" stroke-width="2"/>
    <circle cx="1144.13" cy="685.974" r="44.7632" stroke="#EAE9DE" stroke-width="2"/>
    <circle cx="1235.66" cy="685.974" r="44.7632" stroke="#EAE9DE" stroke-width="2"/>
    <circle cx="-45.7124" cy="777.5" r="44.7632" stroke="#EAE9DE" stroke-width="2"/>
    <circle cx="45.8148" cy="777.5" r="44.7632" stroke="#EAE9DE" stroke-width="2"/>
    <circle cx="137.341" cy="777.5" r="44.7632" stroke="#EAE9DE" stroke-width="2"/>
    <circle cx="228.868" cy="777.5" r="44.7632" stroke="#EAE9DE" stroke-width="2"/>
    <circle cx="320.394" cy="777.5" r="44.7632" stroke="#EAE9DE" stroke-width="2"/>
    <circle cx="411.92" cy="777.5" r="44.7632" stroke="#EAE9DE" stroke-width="2"/>
    <circle cx="503.447" cy="777.5" r="44.7632" stroke="#EAE9DE" stroke-width="2"/>
    <circle cx="594.973" cy="777.5" r="44.7632" stroke="#EAE9DE" stroke-width="2"/>
    <circle cx="686.499" cy="777.5" r="44.7632" stroke="#EAE9DE" stroke-width="2"/>
    <circle cx="778.026" cy="777.5" r="44.7632" stroke="#EAE9DE" stroke-width="2"/>
    <circle cx="869.552" cy="777.5" r="44.7632" stroke="#EAE9DE" stroke-width="2"/>
    <circle cx="961.079" cy="777.5" r="44.7632" stroke="#EAE9DE" stroke-width="2"/>
    <circle cx="1052.6" cy="777.5" r="44.7632" stroke="#EAE9DE" stroke-width="2"/>
    <circle cx="1144.13" cy="777.5" r="44.7632" stroke="#EAE9DE" stroke-width="2"/>
    <circle cx="1235.66" cy="777.5" r="44.7632" stroke="#EAE9DE" stroke-width="2"/>
    </svg>
    