<svg width="9" height="8" viewBox="0 0 9 8" fill="none" xmlns="http://www.w3.org/2000/svg">
<path d="M3.60051 7.72895H6.63074C6.91019 7.72895 7.14924 7.5606 7.25025 7.31818L8.26706 4.94451C8.29736 4.86707 8.3142 4.78626 8.3142 4.69872V4.02534C8.3142 3.65498 8.01117 3.35196 7.64081 3.35196H5.51629L5.83615 1.81328L5.84625 1.70554C5.84625 1.56749 5.78901 1.43955 5.6981 1.34864L5.34121 0.995117L3.12241 3.21391C3.0012 3.33512 2.92713 3.50347 2.92713 3.68865V7.05556C2.92713 7.42593 3.23015 7.72895 3.60051 7.72895ZM3.60051 3.68865L5.06176 2.22741L4.61059 4.02534H7.64081V4.69872L6.63074 7.05556H3.60051V3.68865ZM0.906982 3.68865H2.25375V7.72895H0.906982V3.68865Z" fill="#858786"/>
</svg>
