<svg width="21" height="17" viewBox="0 0 21 17" fill="none" xmlns="http://www.w3.org/2000/svg">
    <path d="M18.0696 4.5482C18.0823 4.72586 18.0823 4.90355 18.0823 5.08121C18.0823 10.5 13.958 16.7436 6.4199 16.7436C4.09756 16.7436 1.94021 16.071 0.125488 14.9036C0.455449 14.9416 0.772676 14.9543 1.11533 14.9543C3.03154 14.9543 4.79553 14.3071 6.20416 13.203C4.40213 13.165 2.89197 11.9848 2.37166 10.3604C2.62549 10.3984 2.87928 10.4238 3.1458 10.4238C3.51381 10.4238 3.88186 10.373 4.22447 10.2843C2.34631 9.90352 0.937637 8.25379 0.937637 6.26141V6.21066C1.4833 6.51523 2.11787 6.70559 2.79041 6.73094C1.68635 5.99488 0.963027 4.73855 0.963027 3.31723C0.963027 2.55582 1.16604 1.85785 1.52139 1.24871C3.53916 3.73602 6.57217 5.36035 9.97314 5.53805C9.90971 5.23348 9.87162 4.91625 9.87162 4.59898C9.87162 2.34008 11.699 0.5 13.9706 0.5C15.1508 0.5 16.2168 0.994922 16.9655 1.79441C17.8919 1.61676 18.7802 1.2741 19.5671 0.80457C19.2624 1.75637 18.6153 2.55586 17.765 3.06344C18.5899 2.97465 19.3894 2.74617 20.1254 2.42895C19.5671 3.24109 18.8691 3.96441 18.0696 4.5482Z" fill="#D87023"/>
    </svg>
    