<svg width="23" height="20" viewBox="0 0 23 20" fill="none" xmlns="http://www.w3.org/2000/svg">
    <path d="M21.9696 4.84699C21.7243 3.92316 21.0014 3.19559 20.0835 2.94867C18.4198 2.5 11.7487 2.5 11.7487 2.5C11.7487 2.5 5.07762 2.5 3.41391 2.94867C2.49605 3.19563 1.77316 3.92316 1.52781 4.84699C1.08203 6.52148 1.08203 10.0152 1.08203 10.0152C1.08203 10.0152 1.08203 13.5088 1.52781 15.1833C1.77316 16.1071 2.49605 16.8044 3.41391 17.0513C5.07762 17.5 11.7487 17.5 11.7487 17.5C11.7487 17.5 18.4198 17.5 20.0835 17.0513C21.0014 16.8044 21.7243 16.1071 21.9696 15.1833C22.4154 13.5088 22.4154 10.0152 22.4154 10.0152C22.4154 10.0152 22.4154 6.52148 21.9696 4.84699ZM9.56688 13.1871V6.84316L15.1426 10.0152L9.56688 13.1871Z" fill="white"/>
    </svg>
    