<svg width="1439" height="1107" viewBox="0 0 1439 1107" fill="none" xmlns="http://www.w3.org/2000/svg">
    <rect width="1439" height="1107" fill="#FFF8F2"/>
    <path d="M1335 736L1311.56 684.438L1260 661L1311.56 637.562L1335 586L1358.44 637.562L1410 661L1358.44 684.438L1335 736Z" fill="white"/>
    <path d="M513.662 273.699H179.934H85L218.167 216.673L269.684 232.226L370.775 240.002H446.268L513.662 273.699Z" fill="white"/>
    <path d="M242.792 224.679C242.792 254.026 320.416 273.604 291.069 273.604C261.722 273.604 124.205 286.202 112.865 268.744C140.082 233.064 220.249 166.319 249.596 166.319C278.943 166.319 242.792 195.332 242.792 224.679Z" fill="white"/>
    <circle cx="269.036" cy="211.813" r="52.8132" fill="white"/>
    <circle cx="298.52" cy="238.058" r="35.6408" fill="white"/>
    <circle cx="369.155" cy="226.393" r="47.3051" fill="white"/>
    <circle cx="419.699" cy="234.817" r="38.8809" fill="white"/>
    <circle cx="443.352" cy="250.046" r="23.6526" fill="white"/>
    <circle cx="1170.5" cy="218.5" r="74.5" fill="white"/>
    <circle cx="1255.5" cy="187.5" r="105.5" fill="white"/>
    </svg>
    