<svg width="44" height="42" viewBox="0 0 44 42" fill="none" xmlns="http://www.w3.org/2000/svg">
    <path d="M20.2565 0.796152C21.3323 0.291729 22.5768 0.29173 23.6526 0.796152L31.8341 4.63212L39.2818 9.4169C40.3429 10.0986 41.0204 11.2408 41.1097 12.4988L41.6935 20.7166C41.7069 20.9053 41.7069 21.0947 41.6935 21.2834L41.1097 29.5012C41.0204 30.7592 40.3429 31.9014 39.2818 32.5831L31.8341 37.3679L23.6526 41.2038C22.5768 41.7083 21.3323 41.7083 20.2565 41.2038L12.075 37.3679L4.62725 32.5831C3.56617 31.9014 2.88873 30.7592 2.79936 29.5012L2.21559 21.2834C2.20218 21.0947 2.20218 20.9053 2.21559 20.7166L2.79936 12.4988C2.88873 11.2408 3.56617 10.0986 4.62725 9.4169L12.075 4.63212L20.2565 0.796152Z" fill="#5F63E1"/>
    <circle cx="21.5" cy="20.5" r="7.5" fill="#7D81FF"/>
    </svg>
    