<svg width="18" height="19" viewBox="0 0 18 19" fill="none" xmlns="http://www.w3.org/2000/svg">
    <path d="M8.88232 4.76465C6.39795 4.76465 4.39404 6.76855 4.39404 9.25293C4.39404 11.7373 6.39795 13.7412 8.88232 13.7412C11.3667 13.7412 13.3706 11.7373 13.3706 9.25293C13.3706 6.76855 11.3667 4.76465 8.88232 4.76465ZM8.88232 12.1709C7.27686 12.1709 5.96435 10.8623 5.96435 9.25293C5.96435 7.64355 7.27295 6.33496 8.88232 6.33496C10.4917 6.33496 11.8003 7.64355 11.8003 9.25293C11.8003 10.8623 10.4878 12.1709 8.88232 12.1709ZM14.6011 4.58105C14.6011 5.16309 14.1323 5.62793 13.5542 5.62793C12.9722 5.62793 12.5073 5.15918 12.5073 4.58105C12.5073 4.00293 12.9761 3.53418 13.5542 3.53418C14.1323 3.53418 14.6011 4.00293 14.6011 4.58105ZM17.5737 5.64355C17.5073 4.24121 17.187 2.99902 16.1597 1.97559C15.1362 0.952148 13.894 0.631836 12.4917 0.561523C11.0464 0.479492 6.71436 0.479492 5.26904 0.561523C3.87061 0.62793 2.62842 0.948242 1.60107 1.97168C0.573731 2.99512 0.257324 4.2373 0.187012 5.63965C0.10498 7.08496 0.10498 11.417 0.187012 12.8623C0.253418 14.2646 0.573731 15.5068 1.60107 16.5303C2.62842 17.5537 3.8667 17.874 5.26904 17.9443C6.71436 18.0264 11.0464 18.0264 12.4917 17.9443C13.894 17.8779 15.1362 17.5576 16.1597 16.5303C17.1831 15.5068 17.5034 14.2646 17.5737 12.8623C17.6558 11.417 17.6558 7.08887 17.5737 5.64355ZM15.7065 14.4131C15.4019 15.1787 14.812 15.7686 14.0425 16.0771C12.8901 16.5342 10.1558 16.4287 8.88232 16.4287C7.60889 16.4287 4.87061 16.5303 3.72217 16.0771C2.95654 15.7725 2.3667 15.1826 2.05811 14.4131C1.60107 13.2607 1.70654 10.5264 1.70654 9.25293C1.70654 7.97949 1.60498 5.24121 2.05811 4.09277C2.36279 3.32715 2.95264 2.7373 3.72217 2.42871C4.87451 1.97168 7.60889 2.07715 8.88232 2.07715C10.1558 2.07715 12.894 1.97559 14.0425 2.42871C14.8081 2.7334 15.3979 3.32324 15.7065 4.09277C16.1636 5.24512 16.0581 7.97949 16.0581 9.25293C16.0581 10.5264 16.1636 13.2646 15.7065 14.4131Z" fill="#D87023"/>
    </svg>
    