<svg width="1111" height="720" viewBox="0 0 1111 720" fill="none" xmlns="http://www.w3.org/2000/svg">
    <circle cx="-9.07862" cy="-11.1841" r="45.6309" stroke="#DEB18E" stroke-opacity="0.56" stroke-width="0.264527"/>
    <circle cx="82.4468" cy="-11.1843" r="45.6309" stroke="#DEB18E" stroke-opacity="0.56" stroke-width="0.264527"/>
    <circle cx="173.974" cy="-11.1841" r="45.6309" stroke="#DEB18E" stroke-opacity="0.56" stroke-width="0.264527"/>
    <circle cx="265.5" cy="-11.1843" r="45.6309" stroke="#DEB18E" stroke-opacity="0.56" stroke-width="0.264527"/>
    <circle cx="357.027" cy="-11.1842" r="45.6309" stroke="#DEB18E" stroke-opacity="0.56" stroke-width="0.264527"/>
    <circle cx="448.552" cy="-11.1841" r="45.6309" stroke="#DEB18E" stroke-opacity="0.56" stroke-width="0.264527"/>
    <circle cx="540.08" cy="-11.1842" r="45.6309" stroke="#DEB18E" stroke-opacity="0.56" stroke-width="0.264527"/>
    <circle cx="631.607" cy="-11.1841" r="45.6309" stroke="#DEB18E" stroke-opacity="0.56" stroke-width="0.264527"/>
    <circle cx="723.132" cy="-11.1842" r="45.6309" stroke="#DEB18E" stroke-opacity="0.56" stroke-width="0.264527"/>
    <circle cx="814.66" cy="-11.1843" r="45.6309" stroke="#DEB18E" stroke-opacity="0.56" stroke-width="0.264527"/>
    <circle cx="906.185" cy="-11.1842" r="45.6309" stroke="#DEB18E" stroke-opacity="0.56" stroke-width="0.264527"/>
    <circle cx="997.712" cy="-11.1843" r="45.6309" stroke="#DEB18E" stroke-opacity="0.56" stroke-width="0.264527"/>
    <circle cx="1089.24" cy="-11.1841" r="45.6309" stroke="#DEB18E" stroke-opacity="0.56" stroke-width="0.264527"/>
    <circle cx="-9.07862" cy="80.3423" r="45.6309" stroke="#DEB18E" stroke-opacity="0.56" stroke-width="0.264527"/>
    <circle cx="82.4468" cy="80.3423" r="45.6309" stroke="#DEB18E" stroke-opacity="0.56" stroke-width="0.264527"/>
    <circle cx="173.974" cy="80.3423" r="45.6309" stroke="#DEB18E" stroke-opacity="0.56" stroke-width="0.264527"/>
    <circle cx="265.501" cy="80.3423" r="45.6309" stroke="#DEB18E" stroke-opacity="0.56" stroke-width="0.264527"/>
    <circle cx="357.027" cy="80.3423" r="45.6309" stroke="#DEB18E" stroke-opacity="0.56" stroke-width="0.264527"/>
    <circle cx="448.552" cy="80.3423" r="45.6309" stroke="#DEB18E" stroke-opacity="0.56" stroke-width="0.264527"/>
    <circle cx="540.08" cy="80.3423" r="45.6309" stroke="#DEB18E" stroke-opacity="0.56" stroke-width="0.264527"/>
    <circle cx="631.607" cy="80.3423" r="45.6309" stroke="#DEB18E" stroke-opacity="0.56" stroke-width="0.264527"/>
    <circle cx="723.132" cy="80.3423" r="45.6309" stroke="#DEB18E" stroke-opacity="0.56" stroke-width="0.264527"/>
    <circle cx="814.658" cy="80.3423" r="45.6309" stroke="#DEB18E" stroke-opacity="0.56" stroke-width="0.264527"/>
    <circle cx="906.185" cy="80.3423" r="45.6309" stroke="#DEB18E" stroke-opacity="0.56" stroke-width="0.264527"/>
    <circle cx="997.712" cy="80.3423" r="45.6309" stroke="#DEB18E" stroke-opacity="0.56" stroke-width="0.264527"/>
    <circle cx="1089.24" cy="80.3423" r="45.6309" stroke="#DEB18E" stroke-opacity="0.56" stroke-width="0.264527"/>
    <circle cx="-9.07862" cy="171.869" r="45.6309" stroke="#DEB18E" stroke-opacity="0.56" stroke-width="0.264527"/>
    <circle cx="82.4468" cy="171.869" r="45.6309" stroke="#DEB18E" stroke-opacity="0.56" stroke-width="0.264527"/>
    <circle cx="173.974" cy="171.869" r="45.6309" stroke="#DEB18E" stroke-opacity="0.56" stroke-width="0.264527"/>
    <circle cx="265.501" cy="171.869" r="45.6309" stroke="#DEB18E" stroke-opacity="0.56" stroke-width="0.264527"/>
    <circle cx="357.027" cy="171.869" r="45.6309" stroke="#DEB18E" stroke-opacity="0.56" stroke-width="0.264527"/>
    <circle cx="448.552" cy="171.869" r="45.6309" stroke="#DEB18E" stroke-opacity="0.56" stroke-width="0.264527"/>
    <circle cx="540.08" cy="171.869" r="45.6309" stroke="#DEB18E" stroke-opacity="0.56" stroke-width="0.264527"/>
    <circle cx="631.607" cy="171.869" r="45.6309" stroke="#DEB18E" stroke-opacity="0.56" stroke-width="0.264527"/>
    <circle cx="723.132" cy="171.869" r="45.6309" stroke="#DEB18E" stroke-opacity="0.56" stroke-width="0.264527"/>
    <circle cx="814.658" cy="171.869" r="45.6309" stroke="#DEB18E" stroke-opacity="0.56" stroke-width="0.264527"/>
    <circle cx="906.185" cy="171.869" r="45.6309" stroke="#DEB18E" stroke-opacity="0.56" stroke-width="0.264527"/>
    <circle cx="997.712" cy="171.869" r="45.6309" stroke="#DEB18E" stroke-opacity="0.56" stroke-width="0.264527"/>
    <circle cx="1089.24" cy="171.869" r="45.6309" stroke="#DEB18E" stroke-opacity="0.56" stroke-width="0.264527"/>
    <circle cx="-9.07862" cy="263.395" r="45.6309" stroke="#DEB18E" stroke-opacity="0.56" stroke-width="0.264527"/>
    <circle cx="82.4468" cy="263.395" r="45.6309" stroke="#DEB18E" stroke-opacity="0.56" stroke-width="0.264527"/>
    <circle cx="173.974" cy="263.395" r="45.6309" stroke="#DEB18E" stroke-opacity="0.56" stroke-width="0.264527"/>
    <circle cx="265.5" cy="263.395" r="45.6309" stroke="#DEB18E" stroke-opacity="0.56" stroke-width="0.264527"/>
    <circle cx="357.027" cy="263.395" r="45.6309" stroke="#DEB18E" stroke-opacity="0.56" stroke-width="0.264527"/>
    <circle cx="448.552" cy="263.395" r="45.6309" stroke="#DEB18E" stroke-opacity="0.56" stroke-width="0.264527"/>
    <circle cx="540.08" cy="263.395" r="45.6309" stroke="#DEB18E" stroke-opacity="0.56" stroke-width="0.264527"/>
    <circle cx="631.607" cy="263.395" r="45.6309" stroke="#DEB18E" stroke-opacity="0.56" stroke-width="0.264527"/>
    <circle cx="723.132" cy="263.395" r="45.6309" stroke="#DEB18E" stroke-opacity="0.56" stroke-width="0.264527"/>
    <circle cx="814.66" cy="263.395" r="45.6309" stroke="#DEB18E" stroke-opacity="0.56" stroke-width="0.264527"/>
    <circle cx="906.185" cy="263.395" r="45.6309" stroke="#DEB18E" stroke-opacity="0.56" stroke-width="0.264527"/>
    <circle cx="997.712" cy="263.395" r="45.6309" stroke="#DEB18E" stroke-opacity="0.56" stroke-width="0.264527"/>
    <circle cx="1089.24" cy="263.395" r="45.6309" stroke="#DEB18E" stroke-opacity="0.56" stroke-width="0.264527"/>
    <circle cx="-9.07862" cy="354.922" r="45.6309" stroke="#DEB18E" stroke-opacity="0.56" stroke-width="0.264527"/>
    <circle cx="82.4468" cy="354.922" r="45.6309" stroke="#DEB18E" stroke-opacity="0.56" stroke-width="0.264527"/>
    <circle cx="173.974" cy="354.922" r="45.6309" stroke="#DEB18E" stroke-opacity="0.56" stroke-width="0.264527"/>
    <circle cx="265.5" cy="354.922" r="45.6309" stroke="#DEB18E" stroke-opacity="0.56" stroke-width="0.264527"/>
    <circle cx="357.027" cy="354.922" r="45.6309" stroke="#DEB18E" stroke-opacity="0.56" stroke-width="0.264527"/>
    <circle cx="448.552" cy="354.922" r="45.6309" stroke="#DEB18E" stroke-opacity="0.56" stroke-width="0.264527"/>
    <circle cx="540.08" cy="354.922" r="45.6309" stroke="#DEB18E" stroke-opacity="0.56" stroke-width="0.264527"/>
    <circle cx="631.607" cy="354.922" r="45.6309" stroke="#DEB18E" stroke-opacity="0.56" stroke-width="0.264527"/>
    <circle cx="723.132" cy="354.922" r="45.6309" stroke="#DEB18E" stroke-opacity="0.56" stroke-width="0.264527"/>
    <circle cx="814.66" cy="354.922" r="45.6309" stroke="#DEB18E" stroke-opacity="0.56" stroke-width="0.264527"/>
    <circle cx="906.185" cy="354.922" r="45.6309" stroke="#DEB18E" stroke-opacity="0.56" stroke-width="0.264527"/>
    <circle cx="997.712" cy="354.922" r="45.6309" stroke="#DEB18E" stroke-opacity="0.56" stroke-width="0.264527"/>
    <circle cx="1089.24" cy="354.922" r="45.6309" stroke="#DEB18E" stroke-opacity="0.56" stroke-width="0.264527"/>
    <circle cx="-9.07862" cy="446.448" r="45.6309" stroke="#DEB18E" stroke-opacity="0.56" stroke-width="0.264527"/>
    <circle cx="82.4468" cy="446.448" r="45.6309" stroke="#DEB18E" stroke-opacity="0.56" stroke-width="0.264527"/>
    <circle cx="173.974" cy="446.448" r="45.6309" stroke="#DEB18E" stroke-opacity="0.56" stroke-width="0.264527"/>
    <circle cx="265.5" cy="446.448" r="45.6309" stroke="#DEB18E" stroke-opacity="0.56" stroke-width="0.264527"/>
    <circle cx="357.027" cy="446.448" r="45.6309" stroke="#DEB18E" stroke-opacity="0.56" stroke-width="0.264527"/>
    <circle cx="448.552" cy="446.448" r="45.6309" stroke="#DEB18E" stroke-opacity="0.56" stroke-width="0.264527"/>
    <circle cx="540.08" cy="446.448" r="45.6309" stroke="#DEB18E" stroke-opacity="0.56" stroke-width="0.264527"/>
    <circle cx="631.607" cy="446.448" r="45.6309" stroke="#DEB18E" stroke-opacity="0.56" stroke-width="0.264527"/>
    <circle cx="723.132" cy="446.448" r="45.6309" stroke="#DEB18E" stroke-opacity="0.56" stroke-width="0.264527"/>
    <circle cx="814.66" cy="446.448" r="45.6309" stroke="#DEB18E" stroke-opacity="0.56" stroke-width="0.264527"/>
    <circle cx="906.185" cy="446.448" r="45.6309" stroke="#DEB18E" stroke-opacity="0.56" stroke-width="0.264527"/>
    <circle cx="997.712" cy="446.448" r="45.6309" stroke="#DEB18E" stroke-opacity="0.56" stroke-width="0.264527"/>
    <circle cx="1089.24" cy="446.448" r="45.6309" stroke="#DEB18E" stroke-opacity="0.56" stroke-width="0.264527"/>
    <circle cx="-9.07862" cy="537.975" r="45.6309" stroke="#DEB18E" stroke-opacity="0.56" stroke-width="0.264527"/>
    <circle cx="82.4468" cy="537.974" r="45.6309" stroke="#DEB18E" stroke-opacity="0.56" stroke-width="0.264527"/>
    <circle cx="173.974" cy="537.975" r="45.6309" stroke="#DEB18E" stroke-opacity="0.56" stroke-width="0.264527"/>
    <circle cx="265.5" cy="537.974" r="45.6309" stroke="#DEB18E" stroke-opacity="0.56" stroke-width="0.264527"/>
    <circle cx="357.027" cy="537.974" r="45.6309" stroke="#DEB18E" stroke-opacity="0.56" stroke-width="0.264527"/>
    <circle cx="448.552" cy="537.975" r="45.6309" stroke="#DEB18E" stroke-opacity="0.56" stroke-width="0.264527"/>
    <circle cx="540.08" cy="537.974" r="45.6309" stroke="#DEB18E" stroke-opacity="0.56" stroke-width="0.264527"/>
    <circle cx="631.607" cy="537.975" r="45.6309" stroke="#DEB18E" stroke-opacity="0.56" stroke-width="0.264527"/>
    <circle cx="723.132" cy="537.974" r="45.6309" stroke="#DEB18E" stroke-opacity="0.56" stroke-width="0.264527"/>
    <circle cx="814.66" cy="537.974" r="45.6309" stroke="#DEB18E" stroke-opacity="0.56" stroke-width="0.264527"/>
    <circle cx="906.185" cy="537.974" r="45.6309" stroke="#DEB18E" stroke-opacity="0.56" stroke-width="0.264527"/>
    <circle cx="997.712" cy="537.974" r="45.6309" stroke="#DEB18E" stroke-opacity="0.56" stroke-width="0.264527"/>
    <circle cx="1089.24" cy="537.975" r="45.6309" stroke="#DEB18E" stroke-opacity="0.56" stroke-width="0.264527"/>
    <circle cx="-9.07862" cy="629.5" r="45.6309" stroke="#DEB18E" stroke-opacity="0.56" stroke-width="0.264527"/>
    <circle cx="82.4468" cy="629.5" r="45.6309" stroke="#DEB18E" stroke-opacity="0.56" stroke-width="0.264527"/>
    <circle cx="173.974" cy="629.5" r="45.6309" stroke="#DEB18E" stroke-opacity="0.56" stroke-width="0.264527"/>
    <circle cx="265.5" cy="629.5" r="45.6309" stroke="#DEB18E" stroke-opacity="0.56" stroke-width="0.264527"/>
    <circle cx="357.027" cy="629.5" r="45.6309" stroke="#DEB18E" stroke-opacity="0.56" stroke-width="0.264527"/>
    <circle cx="448.552" cy="629.5" r="45.6309" stroke="#DEB18E" stroke-opacity="0.56" stroke-width="0.264527"/>
    <circle cx="540.08" cy="629.5" r="45.6309" stroke="#DEB18E" stroke-opacity="0.56" stroke-width="0.264527"/>
    <circle cx="631.607" cy="629.5" r="45.6309" stroke="#DEB18E" stroke-opacity="0.56" stroke-width="0.264527"/>
    <circle cx="723.132" cy="629.5" r="45.6309" stroke="#DEB18E" stroke-opacity="0.56" stroke-width="0.264527"/>
    <circle cx="814.66" cy="629.5" r="45.6309" stroke="#DEB18E" stroke-opacity="0.56" stroke-width="0.264527"/>
    <circle cx="906.185" cy="629.5" r="45.6309" stroke="#DEB18E" stroke-opacity="0.56" stroke-width="0.264527"/>
    <circle cx="997.712" cy="629.5" r="45.6309" stroke="#DEB18E" stroke-opacity="0.56" stroke-width="0.264527"/>
    <circle cx="1089.24" cy="629.5" r="45.6309" stroke="#DEB18E" stroke-opacity="0.56" stroke-width="0.264527"/>
    <circle cx="-9.07862" cy="721.027" r="45.6309" stroke="#DEB18E" stroke-opacity="0.56" stroke-width="0.264527"/>
    <circle cx="82.4468" cy="721.027" r="45.6309" stroke="#DEB18E" stroke-opacity="0.56" stroke-width="0.264527"/>
    <circle cx="173.974" cy="721.027" r="45.6309" stroke="#DEB18E" stroke-opacity="0.56" stroke-width="0.264527"/>
    <circle cx="265.5" cy="721.027" r="45.6309" stroke="#DEB18E" stroke-opacity="0.56" stroke-width="0.264527"/>
    <circle cx="357.027" cy="721.027" r="45.6309" stroke="#DEB18E" stroke-opacity="0.56" stroke-width="0.264527"/>
    <circle cx="448.552" cy="721.027" r="45.6309" stroke="#DEB18E" stroke-opacity="0.56" stroke-width="0.264527"/>
    <circle cx="540.08" cy="721.027" r="45.6309" stroke="#DEB18E" stroke-opacity="0.56" stroke-width="0.264527"/>
    <circle cx="631.607" cy="721.027" r="45.6309" stroke="#DEB18E" stroke-opacity="0.56" stroke-width="0.264527"/>
    <circle cx="723.132" cy="721.027" r="45.6309" stroke="#DEB18E" stroke-opacity="0.56" stroke-width="0.264527"/>
    <circle cx="814.66" cy="721.027" r="45.6309" stroke="#DEB18E" stroke-opacity="0.56" stroke-width="0.264527"/>
    <circle cx="906.185" cy="721.027" r="45.6309" stroke="#DEB18E" stroke-opacity="0.56" stroke-width="0.264527"/>
    <circle cx="997.712" cy="721.027" r="45.6309" stroke="#DEB18E" stroke-opacity="0.56" stroke-width="0.264527"/>
    <circle cx="1089.24" cy="721.027" r="45.6309" stroke="#DEB18E" stroke-opacity="0.56" stroke-width="0.264527"/>
    </svg>
    