<svg width="1440" height="776" viewBox="0 0 1440 776" fill="none" xmlns="http://www.w3.org/2000/svg">
    <circle cx="-45.7114" cy="45.2886" r="44.7632" stroke="#008B65" stroke-width="2"/>
    <circle cx="45.8159" cy="45.2886" r="44.7632" stroke="#008B65" stroke-width="2"/>
    <circle cx="137.341" cy="45.2886" r="44.7632" stroke="#008B65" stroke-width="2"/>
    <circle cx="228.869" cy="45.2886" r="44.7632" stroke="#008B65" stroke-width="2"/>
    <circle cx="320.396" cy="45.2886" r="44.7632" stroke="#008B65" stroke-width="2"/>
    <circle cx="411.921" cy="45.2886" r="44.7632" stroke="#008B65" stroke-width="2"/>
    <circle cx="503.447" cy="45.2886" r="44.7632" stroke="#008B65" stroke-width="2"/>
    <circle cx="594.974" cy="45.2886" r="44.7632" stroke="#008B65" stroke-width="2"/>
    <circle cx="686.501" cy="45.2886" r="44.7632" stroke="#008B65" stroke-width="2"/>
    <circle cx="778.027" cy="45.2886" r="44.7632" stroke="#008B65" stroke-width="2"/>
    <circle cx="869.552" cy="45.2886" r="44.7632" stroke="#008B65" stroke-width="2"/>
    <circle cx="961.08" cy="45.2886" r="44.7632" stroke="#008B65" stroke-width="2"/>
    <circle cx="1052.61" cy="45.2886" r="44.7632" stroke="#008B65" stroke-width="2"/>
    <circle cx="1144.13" cy="45.2886" r="44.7632" stroke="#008B65" stroke-width="2"/>
    <circle cx="1235.66" cy="45.2886" r="44.7632" stroke="#008B65" stroke-width="2"/>
    <circle cx="1327.19" cy="45.2886" r="44.7632" stroke="#008B65" stroke-width="2"/>
    <circle cx="1418.71" cy="45.2886" r="44.7632" stroke="#008B65" stroke-width="2"/>
    <circle cx="-45.7114" cy="136.816" r="44.7632" stroke="#008B65" stroke-width="2"/>
    <circle cx="45.8157" cy="136.816" r="44.7632" stroke="#008B65" stroke-width="2"/>
    <circle cx="137.341" cy="136.816" r="44.7632" stroke="#008B65" stroke-width="2"/>
    <circle cx="228.869" cy="136.816" r="44.7632" stroke="#008B65" stroke-width="2"/>
    <circle cx="320.396" cy="136.816" r="44.7632" stroke="#008B65" stroke-width="2"/>
    <circle cx="411.921" cy="136.816" r="44.7632" stroke="#008B65" stroke-width="2"/>
    <circle cx="503.447" cy="136.816" r="44.7632" stroke="#008B65" stroke-width="2"/>
    <circle cx="594.974" cy="136.816" r="44.7632" stroke="#008B65" stroke-width="2"/>
    <circle cx="686.5" cy="136.816" r="44.7632" stroke="#008B65" stroke-width="2"/>
    <circle cx="778.027" cy="136.816" r="44.7632" stroke="#008B65" stroke-width="2"/>
    <circle cx="869.552" cy="136.816" r="44.7632" stroke="#008B65" stroke-width="2"/>
    <circle cx="961.08" cy="136.816" r="44.7632" stroke="#008B65" stroke-width="2"/>
    <circle cx="1052.61" cy="136.816" r="44.7632" stroke="#008B65" stroke-width="2"/>
    <circle cx="1144.13" cy="136.816" r="44.7632" stroke="#008B65" stroke-width="2"/>
    <circle cx="1235.66" cy="136.816" r="44.7632" stroke="#008B65" stroke-width="2"/>
    <circle cx="1327.19" cy="136.816" r="44.7632" stroke="#008B65" stroke-width="2"/>
    <circle cx="1418.71" cy="136.816" r="44.7632" stroke="#008B65" stroke-width="2"/>
    <circle cx="-45.7114" cy="228.342" r="44.7632" stroke="#008B65" stroke-width="2"/>
    <circle cx="45.8159" cy="228.342" r="44.7632" stroke="#008B65" stroke-width="2"/>
    <circle cx="137.341" cy="228.342" r="44.7632" stroke="#008B65" stroke-width="2"/>
    <circle cx="228.869" cy="228.342" r="44.7632" stroke="#008B65" stroke-width="2"/>
    <circle cx="320.396" cy="228.342" r="44.7632" stroke="#008B65" stroke-width="2"/>
    <circle cx="411.921" cy="228.342" r="44.7632" stroke="#008B65" stroke-width="2"/>
    <circle cx="503.447" cy="228.342" r="44.7632" stroke="#008B65" stroke-width="2"/>
    <circle cx="594.974" cy="228.342" r="44.7632" stroke="#008B65" stroke-width="2"/>
    <circle cx="686.501" cy="228.342" r="44.7632" stroke="#008B65" stroke-width="2"/>
    <circle cx="778.027" cy="228.342" r="44.7632" stroke="#008B65" stroke-width="2"/>
    <circle cx="869.552" cy="228.342" r="44.7632" stroke="#008B65" stroke-width="2"/>
    <circle cx="961.08" cy="228.342" r="44.7632" stroke="#008B65" stroke-width="2"/>
    <circle cx="1052.61" cy="228.342" r="44.7632" stroke="#008B65" stroke-width="2"/>
    <circle cx="1144.13" cy="228.342" r="44.7632" stroke="#008B65" stroke-width="2"/>
    <circle cx="1235.66" cy="228.342" r="44.7632" stroke="#008B65" stroke-width="2"/>
    <circle cx="1327.19" cy="228.342" r="44.7632" stroke="#008B65" stroke-width="2"/>
    <circle cx="1418.71" cy="228.342" r="44.7632" stroke="#008B65" stroke-width="2"/>
    <circle cx="-45.7114" cy="319.869" r="44.7632" stroke="#008B65" stroke-width="2"/>
    <circle cx="45.8159" cy="319.869" r="44.7632" stroke="#008B65" stroke-width="2"/>
    <circle cx="137.341" cy="319.869" r="44.7632" stroke="#008B65" stroke-width="2"/>
    <circle cx="228.869" cy="319.869" r="44.7632" stroke="#008B65" stroke-width="2"/>
    <circle cx="320.396" cy="319.869" r="44.7632" stroke="#008B65" stroke-width="2"/>
    <circle cx="411.921" cy="319.869" r="44.7632" stroke="#008B65" stroke-width="2"/>
    <circle cx="503.447" cy="319.869" r="44.7632" stroke="#008B65" stroke-width="2"/>
    <circle cx="594.974" cy="319.869" r="44.7632" stroke="#008B65" stroke-width="2"/>
    <circle cx="686.501" cy="319.869" r="44.7632" stroke="#008B65" stroke-width="2"/>
    <circle cx="778.027" cy="319.869" r="44.7632" stroke="#008B65" stroke-width="2"/>
    <circle cx="869.552" cy="319.869" r="44.7632" stroke="#008B65" stroke-width="2"/>
    <circle cx="961.08" cy="319.869" r="44.7632" stroke="#008B65" stroke-width="2"/>
    <circle cx="1052.61" cy="319.869" r="44.7632" stroke="#008B65" stroke-width="2"/>
    <circle cx="1144.13" cy="319.869" r="44.7632" stroke="#008B65" stroke-width="2"/>
    <circle cx="1235.66" cy="319.869" r="44.7632" stroke="#008B65" stroke-width="2"/>
    <circle cx="1327.19" cy="319.869" r="44.7632" stroke="#008B65" stroke-width="2"/>
    <circle cx="1418.71" cy="319.869" r="44.7632" stroke="#008B65" stroke-width="2"/>
    <circle cx="-45.7114" cy="411.395" r="44.7632" stroke="#008B65" stroke-width="2"/>
    <circle cx="45.8157" cy="411.395" r="44.7632" stroke="#008B65" stroke-width="2"/>
    <circle cx="137.341" cy="411.395" r="44.7632" stroke="#008B65" stroke-width="2"/>
    <circle cx="228.869" cy="411.395" r="44.7632" stroke="#008B65" stroke-width="2"/>
    <circle cx="320.396" cy="411.395" r="44.7632" stroke="#008B65" stroke-width="2"/>
    <circle cx="411.921" cy="411.395" r="44.7632" stroke="#008B65" stroke-width="2"/>
    <circle cx="503.447" cy="411.395" r="44.7632" stroke="#008B65" stroke-width="2"/>
    <circle cx="594.974" cy="411.395" r="44.7632" stroke="#008B65" stroke-width="2"/>
    <circle cx="686.5" cy="411.395" r="44.7632" stroke="#008B65" stroke-width="2"/>
    <circle cx="778.027" cy="411.395" r="44.7632" stroke="#008B65" stroke-width="2"/>
    <circle cx="869.552" cy="411.395" r="44.7632" stroke="#008B65" stroke-width="2"/>
    <circle cx="961.08" cy="411.395" r="44.7632" stroke="#008B65" stroke-width="2"/>
    <circle cx="1052.61" cy="411.395" r="44.7632" stroke="#008B65" stroke-width="2"/>
    <circle cx="1144.13" cy="411.395" r="44.7632" stroke="#008B65" stroke-width="2"/>
    <circle cx="1235.66" cy="411.395" r="44.7632" stroke="#008B65" stroke-width="2"/>
    <circle cx="1327.19" cy="411.395" r="44.7632" stroke="#008B65" stroke-width="2"/>
    <circle cx="1418.71" cy="411.395" r="44.7632" stroke="#008B65" stroke-width="2"/>
    <circle cx="-45.7114" cy="502.921" r="44.7632" stroke="#008B65" stroke-width="2"/>
    <circle cx="45.8159" cy="502.921" r="44.7632" stroke="#008B65" stroke-width="2"/>
    <circle cx="137.341" cy="502.921" r="44.7632" stroke="#008B65" stroke-width="2"/>
    <circle cx="228.869" cy="502.921" r="44.7632" stroke="#008B65" stroke-width="2"/>
    <circle cx="320.396" cy="502.921" r="44.7632" stroke="#008B65" stroke-width="2"/>
    <circle cx="411.921" cy="502.921" r="44.7632" stroke="#008B65" stroke-width="2"/>
    <circle cx="503.447" cy="502.921" r="44.7632" stroke="#008B65" stroke-width="2"/>
    <circle cx="594.974" cy="502.921" r="44.7632" stroke="#008B65" stroke-width="2"/>
    <circle cx="686.501" cy="502.921" r="44.7632" stroke="#008B65" stroke-width="2"/>
    <circle cx="778.027" cy="502.921" r="44.7632" stroke="#008B65" stroke-width="2"/>
    <circle cx="869.552" cy="502.921" r="44.7632" stroke="#008B65" stroke-width="2"/>
    <circle cx="961.08" cy="502.921" r="44.7632" stroke="#008B65" stroke-width="2"/>
    <circle cx="1052.61" cy="502.921" r="44.7632" stroke="#008B65" stroke-width="2"/>
    <circle cx="1144.13" cy="502.921" r="44.7632" stroke="#008B65" stroke-width="2"/>
    <circle cx="1235.66" cy="502.921" r="44.7632" stroke="#008B65" stroke-width="2"/>
    <circle cx="1327.19" cy="502.921" r="44.7632" stroke="#008B65" stroke-width="2"/>
    <circle cx="1418.71" cy="502.921" r="44.7632" stroke="#008B65" stroke-width="2"/>
    <circle cx="-45.7114" cy="594.448" r="44.7632" stroke="#008B65" stroke-width="2"/>
    <circle cx="45.8157" cy="594.448" r="44.7632" stroke="#008B65" stroke-width="2"/>
    <circle cx="137.341" cy="594.448" r="44.7632" stroke="#008B65" stroke-width="2"/>
    <circle cx="228.869" cy="594.448" r="44.7632" stroke="#008B65" stroke-width="2"/>
    <circle cx="320.396" cy="594.448" r="44.7632" stroke="#008B65" stroke-width="2"/>
    <circle cx="411.921" cy="594.448" r="44.7632" stroke="#008B65" stroke-width="2"/>
    <circle cx="503.447" cy="594.448" r="44.7632" stroke="#008B65" stroke-width="2"/>
    <circle cx="594.974" cy="594.448" r="44.7632" stroke="#008B65" stroke-width="2"/>
    <circle cx="686.5" cy="594.448" r="44.7632" stroke="#008B65" stroke-width="2"/>
    <circle cx="778.027" cy="594.448" r="44.7632" stroke="#008B65" stroke-width="2"/>
    <circle cx="869.552" cy="594.448" r="44.7632" stroke="#008B65" stroke-width="2"/>
    <circle cx="961.08" cy="594.448" r="44.7632" stroke="#008B65" stroke-width="2"/>
    <circle cx="1052.61" cy="594.448" r="44.7632" stroke="#008B65" stroke-width="2"/>
    <circle cx="1144.13" cy="594.448" r="44.7632" stroke="#008B65" stroke-width="2"/>
    <circle cx="1235.66" cy="594.448" r="44.7632" stroke="#008B65" stroke-width="2"/>
    <circle cx="1327.19" cy="594.448" r="44.7632" stroke="#008B65" stroke-width="2"/>
    <circle cx="1418.71" cy="594.448" r="44.7632" stroke="#008B65" stroke-width="2"/>
    <circle cx="-45.7114" cy="685.974" r="44.7632" stroke="#008B65" stroke-width="2"/>
    <circle cx="45.8159" cy="685.974" r="44.7632" stroke="#008B65" stroke-width="2"/>
    <circle cx="137.341" cy="685.974" r="44.7632" stroke="#008B65" stroke-width="2"/>
    <circle cx="228.869" cy="685.974" r="44.7632" stroke="#008B65" stroke-width="2"/>
    <circle cx="320.396" cy="685.974" r="44.7632" stroke="#008B65" stroke-width="2"/>
    <circle cx="411.921" cy="685.974" r="44.7632" stroke="#008B65" stroke-width="2"/>
    <circle cx="503.447" cy="685.974" r="44.7632" stroke="#008B65" stroke-width="2"/>
    <circle cx="594.974" cy="685.974" r="44.7632" stroke="#008B65" stroke-width="2"/>
    <circle cx="686.501" cy="685.974" r="44.7632" stroke="#008B65" stroke-width="2"/>
    <circle cx="778.027" cy="685.974" r="44.7632" stroke="#008B65" stroke-width="2"/>
    <circle cx="869.552" cy="685.974" r="44.7632" stroke="#008B65" stroke-width="2"/>
    <circle cx="961.08" cy="685.974" r="44.7632" stroke="#008B65" stroke-width="2"/>
    <circle cx="1052.61" cy="685.974" r="44.7632" stroke="#008B65" stroke-width="2"/>
    <circle cx="1144.13" cy="685.974" r="44.7632" stroke="#008B65" stroke-width="2"/>
    <circle cx="1235.66" cy="685.974" r="44.7632" stroke="#008B65" stroke-width="2"/>
    <circle cx="1327.19" cy="685.974" r="44.7632" stroke="#008B65" stroke-width="2"/>
    <circle cx="1418.71" cy="685.974" r="44.7632" stroke="#008B65" stroke-width="2"/>
    <circle cx="-45.7114" cy="777.5" r="44.7632" stroke="#008B65" stroke-width="2"/>
    <circle cx="45.8157" cy="777.5" r="44.7632" stroke="#008B65" stroke-width="2"/>
    <circle cx="137.341" cy="777.5" r="44.7632" stroke="#008B65" stroke-width="2"/>
    <circle cx="228.869" cy="777.5" r="44.7632" stroke="#008B65" stroke-width="2"/>
    <circle cx="320.396" cy="777.5" r="44.7632" stroke="#008B65" stroke-width="2"/>
    <circle cx="411.921" cy="777.5" r="44.7632" stroke="#008B65" stroke-width="2"/>
    <circle cx="503.447" cy="777.5" r="44.7632" stroke="#008B65" stroke-width="2"/>
    <circle cx="594.974" cy="777.5" r="44.7632" stroke="#008B65" stroke-width="2"/>
    <circle cx="686.5" cy="777.5" r="44.7632" stroke="#008B65" stroke-width="2"/>
    <circle cx="778.027" cy="777.5" r="44.7632" stroke="#008B65" stroke-width="2"/>
    <circle cx="869.552" cy="777.5" r="44.7632" stroke="#008B65" stroke-width="2"/>
    <circle cx="961.08" cy="777.5" r="44.7632" stroke="#008B65" stroke-width="2"/>
    <circle cx="1052.61" cy="777.5" r="44.7632" stroke="#008B65" stroke-width="2"/>
    <circle cx="1144.13" cy="777.5" r="44.7632" stroke="#008B65" stroke-width="2"/>
    <circle cx="1235.66" cy="777.5" r="44.7632" stroke="#008B65" stroke-width="2"/>
    <circle cx="1327.19" cy="777.5" r="44.7632" stroke="#008B65" stroke-width="2"/>
    <circle cx="1418.71" cy="777.5" r="44.7632" stroke="#008B65" stroke-width="2"/>
    </svg>
    