<svg width="1440" height="878" viewBox="0 0 1440 878" fill="none" xmlns="http://www.w3.org/2000/svg">
    <g clip-path="url(#clip0_431_24107)">
    <mask id="path-1-inside-1_431_24107" fill="white">
    <path d="M0 0H1440V878H0V0Z"/>
    </mask>
    <path d="M0 0H1440V878H0V0Z" fill="black"/>
    <circle cx="-12.7114" cy="32.7632" r="44.7632" stroke="#1E1E1E" stroke-width="2"/>
    <circle cx="78.8158" cy="32.7632" r="44.7632" stroke="#1E1E1E" stroke-width="2"/>
    <circle cx="170.342" cy="32.7632" r="44.7632" stroke="#1E1E1E" stroke-width="2"/>
    <circle cx="261.869" cy="32.7632" r="44.7632" stroke="#1E1E1E" stroke-width="2"/>
    <circle cx="353.395" cy="32.7632" r="44.7632" stroke="#1E1E1E" stroke-width="2"/>
    <circle cx="444.921" cy="32.7632" r="44.7632" stroke="#1E1E1E" stroke-width="2"/>
    <circle cx="536.448" cy="32.7632" r="44.7632" stroke="#1E1E1E" stroke-width="2"/>
    <circle cx="627.974" cy="32.7632" r="44.7632" stroke="#1E1E1E" stroke-width="2"/>
    <circle cx="719.5" cy="32.7632" r="44.7632" stroke="#1E1E1E" stroke-width="2"/>
    <circle cx="811.027" cy="32.7632" r="44.7632" stroke="#1E1E1E" stroke-width="2"/>
    <circle cx="902.553" cy="32.7632" r="44.7632" stroke="#1E1E1E" stroke-width="2"/>
    <circle cx="994.08" cy="32.7632" r="44.7632" stroke="#1E1E1E" stroke-width="2"/>
    <circle cx="1085.61" cy="32.7632" r="44.7632" stroke="#1E1E1E" stroke-width="2"/>
    <circle cx="1177.13" cy="32.7632" r="44.7632" stroke="#1E1E1E" stroke-width="2"/>
    <circle cx="1268.66" cy="32.7632" r="44.7632" stroke="#1E1E1E" stroke-width="2"/>
    <circle cx="1360.18" cy="32.7632" r="44.7632" stroke="#1E1E1E" stroke-width="2"/>
    <circle cx="1451.71" cy="32.7632" r="44.7632" stroke="#1E1E1E" stroke-width="2"/>
    <circle cx="-12.7114" cy="32.7632" r="44.7632" stroke="#1E1E1E" stroke-width="2"/>
    <circle cx="78.8158" cy="32.7632" r="44.7632" stroke="#1E1E1E" stroke-width="2"/>
    <circle cx="170.342" cy="32.7632" r="44.7632" stroke="#1E1E1E" stroke-width="2"/>
    <circle cx="261.869" cy="32.7632" r="44.7632" stroke="#1E1E1E" stroke-width="2"/>
    <circle cx="353.395" cy="32.7632" r="44.7632" stroke="#1E1E1E" stroke-width="2"/>
    <circle cx="444.921" cy="32.7632" r="44.7632" stroke="#1E1E1E" stroke-width="2"/>
    <circle cx="536.448" cy="32.7632" r="44.7632" stroke="#1E1E1E" stroke-width="2"/>
    <circle cx="627.974" cy="32.7632" r="44.7632" stroke="#1E1E1E" stroke-width="2"/>
    <circle cx="719.5" cy="32.7632" r="44.7632" stroke="#1E1E1E" stroke-width="2"/>
    <circle cx="811.027" cy="32.7632" r="44.7632" stroke="#1E1E1E" stroke-width="2"/>
    <circle cx="902.553" cy="32.7632" r="44.7632" stroke="#1E1E1E" stroke-width="2"/>
    <circle cx="994.08" cy="32.7632" r="44.7632" stroke="#1E1E1E" stroke-width="2"/>
    <circle cx="1085.61" cy="32.7632" r="44.7632" stroke="#1E1E1E" stroke-width="2"/>
    <circle cx="1177.13" cy="32.7632" r="44.7632" stroke="#1E1E1E" stroke-width="2"/>
    <circle cx="1268.66" cy="32.7632" r="44.7632" stroke="#1E1E1E" stroke-width="2"/>
    <circle cx="1360.18" cy="32.7632" r="44.7632" stroke="#1E1E1E" stroke-width="2"/>
    <circle cx="1451.71" cy="32.7632" r="44.7632" stroke="#1E1E1E" stroke-width="2"/>
    <circle cx="-12.7114" cy="124.289" r="44.7632" stroke="#1E1E1E" stroke-width="2"/>
    <circle cx="78.8159" cy="124.289" r="44.7632" stroke="#1E1E1E" stroke-width="2"/>
    <circle cx="170.342" cy="124.289" r="44.7632" stroke="#1E1E1E" stroke-width="2"/>
    <circle cx="261.869" cy="124.289" r="44.7632" stroke="#1E1E1E" stroke-width="2"/>
    <circle cx="353.395" cy="124.289" r="44.7632" stroke="#1E1E1E" stroke-width="2"/>
    <circle cx="444.921" cy="124.289" r="44.7632" stroke="#1E1E1E" stroke-width="2"/>
    <circle cx="536.448" cy="124.289" r="44.7632" stroke="#1E1E1E" stroke-width="2"/>
    <circle cx="627.974" cy="124.289" r="44.7632" stroke="#1E1E1E" stroke-width="2"/>
    <circle cx="719.5" cy="124.289" r="44.7632" stroke="#1E1E1E" stroke-width="2"/>
    <circle cx="811.027" cy="124.289" r="44.7632" stroke="#1E1E1E" stroke-width="2"/>
    <circle cx="902.553" cy="124.289" r="44.7632" stroke="#1E1E1E" stroke-width="2"/>
    <circle cx="994.08" cy="124.289" r="44.7632" stroke="#1E1E1E" stroke-width="2"/>
    <circle cx="1085.61" cy="124.289" r="44.7632" stroke="#1E1E1E" stroke-width="2"/>
    <circle cx="1177.13" cy="124.289" r="44.7632" stroke="#1E1E1E" stroke-width="2"/>
    <circle cx="1268.66" cy="124.289" r="44.7632" stroke="#1E1E1E" stroke-width="2"/>
    <circle cx="1360.19" cy="124.289" r="44.7632" stroke="#1E1E1E" stroke-width="2"/>
    <circle cx="1451.71" cy="124.289" r="44.7632" stroke="#1E1E1E" stroke-width="2"/>
    <circle cx="-12.7114" cy="215.816" r="44.7632" stroke="#1E1E1E" stroke-width="2"/>
    <circle cx="78.8158" cy="215.816" r="44.7632" stroke="#1E1E1E" stroke-width="2"/>
    <circle cx="170.342" cy="215.816" r="44.7632" stroke="#1E1E1E" stroke-width="2"/>
    <circle cx="261.869" cy="215.816" r="44.7632" stroke="#1E1E1E" stroke-width="2"/>
    <circle cx="353.395" cy="215.816" r="44.7632" stroke="#1E1E1E" stroke-width="2"/>
    <circle cx="444.921" cy="215.816" r="44.7632" stroke="#1E1E1E" stroke-width="2"/>
    <circle cx="536.448" cy="215.816" r="44.7632" stroke="#1E1E1E" stroke-width="2"/>
    <circle cx="627.974" cy="215.816" r="44.7632" stroke="#1E1E1E" stroke-width="2"/>
    <circle cx="719.5" cy="215.816" r="44.7632" stroke="#1E1E1E" stroke-width="2"/>
    <circle cx="811.027" cy="215.816" r="44.7632" stroke="#1E1E1E" stroke-width="2"/>
    <circle cx="902.553" cy="215.816" r="44.7632" stroke="#1E1E1E" stroke-width="2"/>
    <circle cx="994.08" cy="215.816" r="44.7632" stroke="#1E1E1E" stroke-width="2"/>
    <circle cx="1085.61" cy="215.816" r="44.7632" stroke="#1E1E1E" stroke-width="2"/>
    <circle cx="1177.13" cy="215.816" r="44.7632" stroke="#1E1E1E" stroke-width="2"/>
    <circle cx="1268.66" cy="215.816" r="44.7632" stroke="#1E1E1E" stroke-width="2"/>
    <circle cx="1360.18" cy="215.816" r="44.7632" stroke="#1E1E1E" stroke-width="2"/>
    <circle cx="1451.71" cy="215.816" r="44.7632" stroke="#1E1E1E" stroke-width="2"/>
    <circle cx="-12.7114" cy="307.342" r="44.7632" stroke="#1E1E1E" stroke-width="2"/>
    <circle cx="78.8159" cy="307.342" r="44.7632" stroke="#1E1E1E" stroke-width="2"/>
    <circle cx="170.342" cy="307.342" r="44.7632" stroke="#1E1E1E" stroke-width="2"/>
    <circle cx="261.869" cy="307.342" r="44.7632" stroke="#1E1E1E" stroke-width="2"/>
    <circle cx="353.395" cy="307.342" r="44.7632" stroke="#1E1E1E" stroke-width="2"/>
    <circle cx="444.921" cy="307.342" r="44.7632" stroke="#1E1E1E" stroke-width="2"/>
    <circle cx="536.448" cy="307.342" r="44.7632" stroke="#1E1E1E" stroke-width="2"/>
    <circle cx="627.974" cy="307.342" r="44.7632" stroke="#1E1E1E" stroke-width="2"/>
    <circle cx="719.5" cy="307.342" r="44.7632" stroke="#1E1E1E" stroke-width="2"/>
    <circle cx="811.027" cy="307.342" r="44.7632" stroke="#1E1E1E" stroke-width="2"/>
    <circle cx="902.553" cy="307.342" r="44.7632" stroke="#1E1E1E" stroke-width="2"/>
    <circle cx="994.08" cy="307.342" r="44.7632" stroke="#1E1E1E" stroke-width="2"/>
    <circle cx="1085.61" cy="307.342" r="44.7632" stroke="#1E1E1E" stroke-width="2"/>
    <circle cx="1177.13" cy="307.342" r="44.7632" stroke="#1E1E1E" stroke-width="2"/>
    <circle cx="1268.66" cy="307.342" r="44.7632" stroke="#1E1E1E" stroke-width="2"/>
    <circle cx="1360.19" cy="307.342" r="44.7632" stroke="#1E1E1E" stroke-width="2"/>
    <circle cx="1451.71" cy="307.342" r="44.7632" stroke="#1E1E1E" stroke-width="2"/>
    <circle cx="-12.7114" cy="398.869" r="44.7632" stroke="#1E1E1E" stroke-width="2"/>
    <circle cx="78.8159" cy="398.869" r="44.7632" stroke="#1E1E1E" stroke-width="2"/>
    <circle cx="170.342" cy="398.869" r="44.7632" stroke="#1E1E1E" stroke-width="2"/>
    <circle cx="261.869" cy="398.869" r="44.7632" stroke="#1E1E1E" stroke-width="2"/>
    <circle cx="353.395" cy="398.869" r="44.7632" stroke="#1E1E1E" stroke-width="2"/>
    <circle cx="444.921" cy="398.869" r="44.7632" stroke="#1E1E1E" stroke-width="2"/>
    <circle cx="536.448" cy="398.869" r="44.7632" stroke="#1E1E1E" stroke-width="2"/>
    <circle cx="627.974" cy="398.869" r="44.7632" stroke="#1E1E1E" stroke-width="2"/>
    <circle cx="719.5" cy="398.869" r="44.7632" stroke="#1E1E1E" stroke-width="2"/>
    <circle cx="811.027" cy="398.869" r="44.7632" stroke="#1E1E1E" stroke-width="2"/>
    <circle cx="902.553" cy="398.869" r="44.7632" stroke="#1E1E1E" stroke-width="2"/>
    <circle cx="994.08" cy="398.869" r="44.7632" stroke="#1E1E1E" stroke-width="2"/>
    <circle cx="1085.61" cy="398.869" r="44.7632" stroke="#1E1E1E" stroke-width="2"/>
    <circle cx="1177.13" cy="398.869" r="44.7632" stroke="#1E1E1E" stroke-width="2"/>
    <circle cx="1268.66" cy="398.869" r="44.7632" stroke="#1E1E1E" stroke-width="2"/>
    <circle cx="1360.19" cy="398.869" r="44.7632" stroke="#1E1E1E" stroke-width="2"/>
    <circle cx="1451.71" cy="398.869" r="44.7632" stroke="#1E1E1E" stroke-width="2"/>
    <circle cx="-12.7114" cy="490.395" r="44.7632" stroke="#1E1E1E" stroke-width="2"/>
    <circle cx="78.8158" cy="490.395" r="44.7632" stroke="#1E1E1E" stroke-width="2"/>
    <circle cx="170.342" cy="490.395" r="44.7632" stroke="#1E1E1E" stroke-width="2"/>
    <circle cx="261.869" cy="490.395" r="44.7632" stroke="#1E1E1E" stroke-width="2"/>
    <circle cx="353.395" cy="490.395" r="44.7632" stroke="#1E1E1E" stroke-width="2"/>
    <circle cx="444.921" cy="490.395" r="44.7632" stroke="#1E1E1E" stroke-width="2"/>
    <circle cx="536.448" cy="490.395" r="44.7632" stroke="#1E1E1E" stroke-width="2"/>
    <circle cx="627.974" cy="490.395" r="44.7632" stroke="#1E1E1E" stroke-width="2"/>
    <circle cx="719.5" cy="490.395" r="44.7632" stroke="#1E1E1E" stroke-width="2"/>
    <circle cx="811.027" cy="490.395" r="44.7632" stroke="#1E1E1E" stroke-width="2"/>
    <circle cx="902.553" cy="490.395" r="44.7632" stroke="#1E1E1E" stroke-width="2"/>
    <circle cx="994.08" cy="490.395" r="44.7632" stroke="#1E1E1E" stroke-width="2"/>
    <circle cx="1085.61" cy="490.395" r="44.7632" stroke="#1E1E1E" stroke-width="2"/>
    <circle cx="1177.13" cy="490.395" r="44.7632" stroke="#1E1E1E" stroke-width="2"/>
    <circle cx="1268.66" cy="490.395" r="44.7632" stroke="#1E1E1E" stroke-width="2"/>
    <circle cx="1360.18" cy="490.395" r="44.7632" stroke="#1E1E1E" stroke-width="2"/>
    <circle cx="1451.71" cy="490.395" r="44.7632" stroke="#1E1E1E" stroke-width="2"/>
    <circle cx="-12.7114" cy="581.921" r="44.7632" stroke="#1E1E1E" stroke-width="2"/>
    <circle cx="78.8159" cy="581.921" r="44.7632" stroke="#1E1E1E" stroke-width="2"/>
    <circle cx="170.342" cy="581.921" r="44.7632" stroke="#1E1E1E" stroke-width="2"/>
    <circle cx="261.869" cy="581.921" r="44.7632" stroke="#1E1E1E" stroke-width="2"/>
    <circle cx="353.395" cy="581.921" r="44.7632" stroke="#1E1E1E" stroke-width="2"/>
    <circle cx="444.921" cy="581.921" r="44.7632" stroke="#1E1E1E" stroke-width="2"/>
    <circle cx="536.448" cy="581.921" r="44.7632" stroke="#1E1E1E" stroke-width="2"/>
    <circle cx="627.974" cy="581.921" r="44.7632" stroke="#1E1E1E" stroke-width="2"/>
    <circle cx="719.5" cy="581.921" r="44.7632" stroke="#1E1E1E" stroke-width="2"/>
    <circle cx="811.027" cy="581.921" r="44.7632" stroke="#1E1E1E" stroke-width="2"/>
    <circle cx="902.553" cy="581.921" r="44.7632" stroke="#1E1E1E" stroke-width="2"/>
    <circle cx="994.08" cy="581.921" r="44.7632" stroke="#1E1E1E" stroke-width="2"/>
    <circle cx="1085.61" cy="581.921" r="44.7632" stroke="#1E1E1E" stroke-width="2"/>
    <circle cx="1177.13" cy="581.921" r="44.7632" stroke="#1E1E1E" stroke-width="2"/>
    <circle cx="1268.66" cy="581.921" r="44.7632" stroke="#1E1E1E" stroke-width="2"/>
    <circle cx="1360.19" cy="581.921" r="44.7632" stroke="#1E1E1E" stroke-width="2"/>
    <circle cx="1451.71" cy="581.921" r="44.7632" stroke="#1E1E1E" stroke-width="2"/>
    <circle cx="-12.7114" cy="673.448" r="44.7632" stroke="#1E1E1E" stroke-width="2"/>
    <circle cx="78.8158" cy="673.448" r="44.7632" stroke="#1E1E1E" stroke-width="2"/>
    <circle cx="170.342" cy="673.448" r="44.7632" stroke="#1E1E1E" stroke-width="2"/>
    <circle cx="261.869" cy="673.448" r="44.7632" stroke="#1E1E1E" stroke-width="2"/>
    <circle cx="353.395" cy="673.448" r="44.7632" stroke="#1E1E1E" stroke-width="2"/>
    <circle cx="444.921" cy="673.448" r="44.7632" stroke="#1E1E1E" stroke-width="2"/>
    <circle cx="536.448" cy="673.448" r="44.7632" stroke="#1E1E1E" stroke-width="2"/>
    <circle cx="627.974" cy="673.448" r="44.7632" stroke="#1E1E1E" stroke-width="2"/>
    <circle cx="719.5" cy="673.448" r="44.7632" stroke="#1E1E1E" stroke-width="2"/>
    <circle cx="811.027" cy="673.448" r="44.7632" stroke="#1E1E1E" stroke-width="2"/>
    <circle cx="902.553" cy="673.448" r="44.7632" stroke="#1E1E1E" stroke-width="2"/>
    <circle cx="994.08" cy="673.448" r="44.7632" stroke="#1E1E1E" stroke-width="2"/>
    <circle cx="1085.61" cy="673.448" r="44.7632" stroke="#1E1E1E" stroke-width="2"/>
    <circle cx="1177.13" cy="673.448" r="44.7632" stroke="#1E1E1E" stroke-width="2"/>
    <circle cx="1268.66" cy="673.448" r="44.7632" stroke="#1E1E1E" stroke-width="2"/>
    <circle cx="1360.18" cy="673.448" r="44.7632" stroke="#1E1E1E" stroke-width="2"/>
    <circle cx="1451.71" cy="673.448" r="44.7632" stroke="#1E1E1E" stroke-width="2"/>
    <circle cx="-12.7114" cy="764.974" r="44.7632" stroke="#1E1E1E" stroke-width="2"/>
    <circle cx="78.8159" cy="764.974" r="44.7632" stroke="#1E1E1E" stroke-width="2"/>
    <circle cx="170.342" cy="764.974" r="44.7632" stroke="#1E1E1E" stroke-width="2"/>
    <circle cx="261.869" cy="764.974" r="44.7632" stroke="#1E1E1E" stroke-width="2"/>
    <circle cx="353.395" cy="764.974" r="44.7632" stroke="#1E1E1E" stroke-width="2"/>
    <circle cx="444.921" cy="764.974" r="44.7632" stroke="#1E1E1E" stroke-width="2"/>
    <circle cx="536.448" cy="764.974" r="44.7632" stroke="#1E1E1E" stroke-width="2"/>
    <circle cx="627.974" cy="764.974" r="44.7632" stroke="#1E1E1E" stroke-width="2"/>
    <circle cx="719.5" cy="764.974" r="44.7632" stroke="#1E1E1E" stroke-width="2"/>
    <circle cx="811.027" cy="764.974" r="44.7632" stroke="#1E1E1E" stroke-width="2"/>
    <circle cx="902.553" cy="764.974" r="44.7632" stroke="#1E1E1E" stroke-width="2"/>
    <circle cx="994.08" cy="764.974" r="44.7632" stroke="#1E1E1E" stroke-width="2"/>
    <circle cx="1085.61" cy="764.974" r="44.7632" stroke="#1E1E1E" stroke-width="2"/>
    <circle cx="1177.13" cy="764.974" r="44.7632" stroke="#1E1E1E" stroke-width="2"/>
    <circle cx="1268.66" cy="764.974" r="44.7632" stroke="#1E1E1E" stroke-width="2"/>
    <circle cx="1360.19" cy="764.974" r="44.7632" stroke="#1E1E1E" stroke-width="2"/>
    <circle cx="1451.71" cy="764.974" r="44.7632" stroke="#1E1E1E" stroke-width="2"/>
    <circle cx="-12.7114" cy="856.5" r="44.7632" stroke="#1E1E1E" stroke-width="2"/>
    <circle cx="78.8158" cy="856.5" r="44.7632" stroke="#1E1E1E" stroke-width="2"/>
    <circle cx="170.342" cy="856.5" r="44.7632" stroke="#1E1E1E" stroke-width="2"/>
    <circle cx="261.869" cy="856.5" r="44.7632" stroke="#1E1E1E" stroke-width="2"/>
    <circle cx="353.395" cy="856.5" r="44.7632" stroke="#1E1E1E" stroke-width="2"/>
    <circle cx="444.921" cy="856.5" r="44.7632" stroke="#1E1E1E" stroke-width="2"/>
    <circle cx="536.448" cy="856.5" r="44.7632" stroke="#1E1E1E" stroke-width="2"/>
    <circle cx="627.974" cy="856.5" r="44.7632" stroke="#1E1E1E" stroke-width="2"/>
    <circle cx="719.5" cy="856.5" r="44.7632" stroke="#1E1E1E" stroke-width="2"/>
    <circle cx="811.027" cy="856.5" r="44.7632" stroke="#1E1E1E" stroke-width="2"/>
    <circle cx="902.553" cy="856.5" r="44.7632" stroke="#1E1E1E" stroke-width="2"/>
    <circle cx="994.08" cy="856.5" r="44.7632" stroke="#1E1E1E" stroke-width="2"/>
    <circle cx="1085.61" cy="856.5" r="44.7632" stroke="#1E1E1E" stroke-width="2"/>
    <circle cx="1177.13" cy="856.5" r="44.7632" stroke="#1E1E1E" stroke-width="2"/>
    <circle cx="1268.66" cy="856.5" r="44.7632" stroke="#1E1E1E" stroke-width="2"/>
    <circle cx="1360.18" cy="856.5" r="44.7632" stroke="#1E1E1E" stroke-width="2"/>
    <circle cx="1451.71" cy="856.5" r="44.7632" stroke="#1E1E1E" stroke-width="2"/>
    </g>
    <path d="M1440 877H0V879H1440V877Z" fill="#E1E2EB" mask="url(#path-1-inside-1_431_24107)"/>
    <defs>
    <clipPath id="clip0_431_24107">
    <path d="M0 0H1440V878H0V0Z" fill="white"/>
    </clipPath>
    </defs>
    </svg>
    