<svg width="44" height="37" viewBox="0 0 44 37" fill="none" xmlns="http://www.w3.org/2000/svg">
<path d="M21.775 7.00889C21.3686 7.14184 21.1427 7.58283 21.3326 7.96591C21.7194 8.7465 22.2888 9.42789 22.9974 9.9502C23.9152 10.6268 25.0213 11.0031 26.1631 11.0272C27.3048 11.0513 28.4259 10.7221 29.3718 10.0849C30.1019 9.59297 30.6999 8.93626 31.1196 8.17273C31.3256 7.79804 31.1185 7.34778 30.7181 7.19775C30.3193 7.04832 29.8808 7.25545 29.6559 7.61703C29.3626 8.08849 28.9714 8.49577 28.5053 8.80975C27.8246 9.26839 27.0176 9.50537 26.1959 9.48801C25.3741 9.47065 24.578 9.1998 23.9174 8.71282C23.4653 8.37954 23.0918 7.95628 22.8189 7.47306C22.6094 7.10209 22.1799 6.87641 21.775 7.00889Z" fill="#D87023"/>
<path d="M25.5715 5.00162C26.078 5.50466 26.8281 6.8674 26.4454 7.24941C26.0627 7.63141 24.6923 6.88801 24.1858 6.38497C23.6793 5.88192 23.5789 5.16445 23.9615 4.78245C24.3442 4.40045 25.065 4.49857 25.5715 5.00162Z" fill="#009F79"/>
<path d="M27.6524 5.92547C27.3127 6.28187 26.8213 7.23566 27.0924 7.49188C27.3635 7.7481 28.2944 7.20973 28.6341 6.85333C28.9739 6.49693 29.0295 6.0003 28.7584 5.74408C28.4873 5.48786 27.9921 5.56907 27.6524 5.92547Z" fill="#009F79"/>
<path d="M7.31873 4.54572C8.46753 4.54572 9.51952 4.77806 10.4747 5.24274C11.4428 5.69452 11.9268 6.21728 11.9268 6.81104C11.9268 7.0692 11.8365 7.28863 11.6558 7.46934C11.488 7.65005 11.2814 7.74041 11.0362 7.74041C10.7909 7.74041 10.5457 7.6436 10.3004 7.44998C10.0552 7.25636 9.8164 7.04338 9.58406 6.81104C9.36462 6.56579 9.00966 6.34636 8.51916 6.15274C8.04157 5.95913 7.47363 5.86232 6.81533 5.86232C5.34384 5.86232 4.18213 6.327 3.33022 7.25636C2.49121 8.17282 2.07171 9.42488 2.07171 11.0125C2.07171 12.5873 2.53639 13.9491 3.46575 15.0979C4.39511 16.2467 5.56972 16.8211 6.98958 16.8211C8.42235 16.8211 9.72604 16.1369 10.9007 14.7687C11.1588 14.4589 11.346 14.304 11.4621 14.304C11.5912 14.304 11.688 14.3492 11.7526 14.4396C11.83 14.517 11.8687 14.6396 11.8687 14.8074C11.8687 14.9752 11.7332 15.2463 11.4621 15.6206C11.204 15.982 10.849 16.3564 10.3972 16.7436C9.95838 17.1179 9.37753 17.4471 8.65469 17.7311C7.94476 18.0021 7.20256 18.1377 6.42809 18.1377C4.72426 18.1377 3.3044 17.531 2.16851 16.3177C1.04553 15.1043 0.484043 13.5425 0.484043 11.6321C0.484043 9.70885 1.12943 8.05019 2.42022 6.65615C3.72391 5.2492 5.35675 4.54572 7.31873 4.54572ZM20.4315 15.2528C20.5089 15.6271 20.6767 15.9627 20.9349 16.2596C21.2059 16.5435 21.3415 16.834 21.3415 17.1308C21.3415 17.4277 21.2382 17.673 21.0317 17.8666C20.8252 18.0473 20.5993 18.1377 20.354 18.1377C20.1088 18.1377 19.9087 18.0925 19.7538 18.0021C19.5989 17.9118 19.4698 17.7762 19.3666 17.5955C19.2246 17.3245 19.1149 16.9953 19.0374 16.6081L18.1855 12.5615C18.0564 11.9677 17.8499 11.4966 17.5659 11.1481C17.2949 10.7996 16.8689 10.6253 16.2881 10.6253C15.7201 10.6253 15.2748 10.8254 14.9521 11.2255C14.6423 11.6128 14.481 12.0387 14.4681 12.5034C14.5713 15.5625 14.6229 17.1825 14.6229 17.3632C14.6229 17.531 14.5455 17.7052 14.3906 17.886C14.2357 18.0538 14.0356 18.1377 13.7904 18.1377C13.5451 18.1377 13.3322 18.0538 13.1515 17.886C12.9837 17.7052 12.8998 17.4148 12.8998 17.0147C12.8998 16.6145 12.932 15.6658 12.9966 14.1685C13.0611 12.6583 13.0934 11.4901 13.0934 10.664C13.0934 9.83793 13.0611 8.72785 12.9966 7.33381C12.932 5.93977 12.8998 5.04267 12.8998 4.64253C12.8998 4.24239 12.9837 3.95196 13.1515 3.77125C13.3322 3.59054 13.5451 3.50019 13.7904 3.50019C14.0356 3.50019 14.2357 3.59054 14.3906 3.77125C14.5455 3.93905 14.6229 4.22302 14.6229 4.62317C14.6229 5.0104 14.5907 5.92686 14.5261 7.37253C14.4745 8.8053 14.4487 9.97991 14.4487 10.8964C15.2103 9.76048 16.088 9.19254 17.0819 9.19254C18.4372 9.19254 19.3085 10.1025 19.6957 11.9225L20.4315 15.2528ZM23.6697 11.574C23.1018 12.142 22.8178 12.839 22.8178 13.6651C22.8178 14.4912 23.1018 15.1947 23.6697 15.7755C24.2506 16.3435 24.9476 16.6274 25.7608 16.6274C26.5869 16.6274 27.2774 16.3435 27.8325 15.7755C28.3875 15.1947 28.665 14.4912 28.665 13.6651C28.665 12.839 28.3875 12.142 27.8325 11.574C27.2774 11.0061 26.5869 10.7221 25.7608 10.7221C24.9476 10.7221 24.2506 11.0061 23.6697 11.574ZM24.4442 18.1377C23.6181 18.1377 22.9275 17.815 22.3725 17.1696C21.8174 16.5242 21.5399 15.7174 21.5399 14.7494C21.5399 13.7684 21.8433 12.8261 22.4499 11.9225C23.0566 11.0061 23.7665 10.322 24.5797 9.8702C25.3929 9.41842 26.2126 9.19254 27.0387 9.19254C27.8648 9.19254 28.5553 9.51523 29.1104 10.1606C29.6654 10.806 29.9429 11.6192 29.9429 12.6002C29.9429 13.5683 29.6396 14.5106 29.0329 15.427C28.4262 16.3306 27.7163 17.0082 26.9031 17.46C26.0899 17.9118 25.2703 18.1377 24.4442 18.1377ZM33.3385 18.1377C33.1061 18.1377 32.8996 18.0408 32.7189 17.8472C32.5511 17.6407 32.422 17.3955 32.3317 17.1115C31.5314 14.5041 30.8279 12.555 30.2212 11.2642C29.976 10.7092 29.8534 10.3026 29.8534 10.0445C29.8534 9.7863 29.9244 9.57977 30.0663 9.42488C30.2083 9.26998 30.389 9.19254 30.6085 9.19254C30.9441 9.19254 31.2151 9.44424 31.4217 9.94764C31.6411 10.451 32.0348 11.4837 32.6027 13.0455C33.1836 14.5945 33.5321 15.5561 33.6483 15.9304C33.7644 16.2918 33.8419 16.5242 33.8806 16.6274L33.9387 16.8211C34.3001 16.5758 34.7067 16.0659 35.1585 15.2915C35.6232 14.517 35.9394 13.749 36.1072 12.9874C35.862 12.3291 35.6232 11.7418 35.3908 11.2255C35.1585 10.6963 35.0423 10.3026 35.0423 10.0445C35.0423 9.7863 35.1133 9.57977 35.2553 9.42488C35.3973 9.26998 35.578 9.19254 35.7974 9.19254C36.133 9.19254 36.4041 9.44424 36.6106 9.94764C36.83 10.451 37.2237 11.4837 37.7917 13.0455C38.3725 14.5945 38.721 15.5561 38.8372 15.9304C38.9534 16.2918 39.0308 16.5242 39.0695 16.6274L39.1276 16.8211C39.5923 16.5113 40.0893 15.8401 40.6185 14.8074C41.1606 13.7619 41.4317 12.8196 41.4317 11.9806C41.4317 11.6967 41.3542 11.361 41.1993 10.9738C41.0444 10.5737 40.967 10.2639 40.967 10.0445C40.967 9.82502 41.0509 9.6314 41.2187 9.4636C41.3994 9.28289 41.6382 9.19254 41.9351 9.19254C42.232 9.19254 42.4708 9.33452 42.6515 9.61849C42.8451 9.90247 42.9419 10.3801 42.9419 11.0513C42.9419 11.7225 42.716 12.6325 42.2642 13.7813C41.8254 14.9301 41.251 15.9433 40.541 16.8211C39.8311 17.6988 39.1599 18.1377 38.5274 18.1377C38.0886 18.1377 37.753 17.7956 37.5206 17.1115C37.469 16.9695 37.3528 16.6145 37.1721 16.0466L36.6881 14.6332C36.2105 15.6271 35.6683 16.4596 35.0617 17.1308C34.455 17.8021 33.8806 18.1377 33.3385 18.1377Z" fill="#353542"/>
<path d="M7.39618 28.513C7.48654 28.7453 7.6737 29.0615 7.95767 29.4617C8.25455 29.8489 8.40299 30.1652 8.40299 30.4104C8.40299 30.6556 8.33845 30.8557 8.20937 31.0106C8.0803 31.1526 7.90604 31.2236 7.68661 31.2236C7.15739 31.2236 6.68625 30.675 6.2732 29.5778L6.11831 29.1519C5.46001 30.533 4.47256 31.2236 3.15596 31.2236C2.49766 31.2236 1.94908 31.0171 1.51021 30.604C1.08426 30.1781 0.871278 29.6488 0.871278 29.0164C0.871278 28.0354 1.20688 27.1899 1.87809 26.48C2.54929 25.77 3.42703 25.3893 4.51128 25.3376C4.25313 24.8859 3.9627 24.5502 3.64001 24.3308C3.33022 24.0985 3.04625 23.9629 2.78809 23.9242C2.52993 23.8855 2.28468 23.8661 2.05234 23.8661C1.83291 23.8532 1.65865 23.8016 1.52958 23.7112C1.4005 23.6209 1.33596 23.4466 1.33596 23.1885C1.33596 22.9174 1.43922 22.698 1.64575 22.5302C1.86518 22.3624 2.12334 22.2785 2.42022 22.2785C3.25922 22.2785 4.08533 22.698 4.89852 23.537C5.71171 24.376 6.42164 25.6926 7.02831 27.4868L7.39618 28.513ZM4.02724 26.3638C3.56256 26.3638 3.14305 26.5187 2.76873 26.8285C2.40731 27.1383 2.2266 27.5384 2.2266 28.0289C2.2266 28.5194 2.38795 28.9325 2.71064 29.2681C3.04625 29.5908 3.44639 29.7521 3.91107 29.7521C4.37575 29.7521 4.77589 29.5908 5.1115 29.2681C5.4471 28.9325 5.6149 28.5388 5.6149 28.087C5.6149 27.7643 5.55682 27.4674 5.44065 27.1964C5.32448 26.9124 5.25348 26.7381 5.22767 26.6736C4.89206 26.4671 4.49192 26.3638 4.02724 26.3638ZM9.08035 34.457C9.20943 33.9536 9.33205 33.2114 9.44822 32.2304C9.5773 31.2494 9.64184 30.1264 9.64184 28.8615C9.64184 27.5965 9.58375 25.8604 9.46758 23.6532H8.86737C8.36396 23.6532 8.11226 23.4337 8.11226 22.9949C8.11226 22.556 8.36396 22.3366 8.86737 22.3366C9.12553 22.3366 9.31914 22.343 9.44822 22.3559C9.49985 20.7424 10.1065 19.3807 11.2682 18.2706C12.4428 17.1476 13.6174 16.5861 14.7921 16.5861C15.2567 16.5861 15.6375 16.67 15.9344 16.8378C16.2442 17.0056 16.3991 17.2509 16.3991 17.5736C16.3991 17.8834 16.3087 18.1286 16.128 18.3093C15.9602 18.4771 15.7924 18.561 15.6246 18.561C15.4568 18.561 15.1664 18.49 14.7533 18.348C14.3403 18.1931 13.9337 18.1157 13.5335 18.1157C12.7333 18.1157 12.0491 18.4707 11.4812 19.1806C10.9133 19.8776 10.6293 20.7166 10.6293 21.6976V22.4334H11.2489L13.9208 22.2785C14.4242 22.2785 14.6759 22.5173 14.6759 22.9949C14.6759 23.4724 14.4242 23.7112 13.9208 23.7112L11.2489 23.5563C10.9649 23.5563 10.7584 23.5628 10.6293 23.5757C10.6551 24.9956 10.7132 26.5897 10.8035 28.3581C10.9068 30.1264 10.9584 31.869 10.9584 33.5857C10.9584 35.6768 10.5518 36.7223 9.73865 36.7223C9.1707 36.7223 8.88673 36.3545 8.88673 35.6187C8.88673 35.3605 8.95127 34.9733 9.08035 34.457ZM16.8521 26.5574L17.007 30.0619C17.007 30.4104 16.9167 30.6944 16.7359 30.9138C16.5681 31.1203 16.3616 31.2236 16.1164 31.2236C15.8711 31.2236 15.6711 31.1268 15.5162 30.9332C15.3613 30.7266 15.2838 30.4491 15.2838 30.1006C15.2838 29.7521 15.3161 29.2551 15.3806 28.6098C15.5097 27.319 15.5742 26.2283 15.5742 25.3376C15.5742 24.9504 15.4516 24.5825 15.2064 24.234C14.974 23.8726 14.8579 23.5499 14.8579 23.2659C14.8579 22.9819 14.9547 22.7496 15.1483 22.5689C15.3419 22.3753 15.5613 22.2785 15.8066 22.2785C16.452 22.2785 16.7747 22.7883 16.7747 23.8081V24.5632C17.1619 23.8661 17.6266 23.3111 18.1687 22.898C18.7108 22.485 19.2078 22.2785 19.6596 22.2785C20.1113 22.2785 20.4534 22.3946 20.6857 22.627C20.931 22.8464 21.0536 23.1433 21.0536 23.5176C21.0536 23.892 20.9633 24.2082 20.7825 24.4663C20.6018 24.7116 20.4082 24.8342 20.2017 24.8342C19.9952 24.8342 19.8338 24.7826 19.7177 24.6793C19.6144 24.5632 19.5369 24.447 19.4853 24.3308C19.4337 24.2017 19.3369 24.0856 19.1949 23.9823C19.0529 23.8661 18.8722 23.8081 18.6528 23.8081C18.2784 23.8081 17.9041 24.0533 17.5298 24.5438C17.1554 25.0343 16.9296 25.7055 16.8521 26.5574ZM21.9374 29.694C21.9374 28.0676 21.9052 26.6413 21.8406 25.4151C21.7761 24.1888 21.7438 23.466 21.7438 23.2466C21.7438 23.0271 21.8277 22.8141 21.9955 22.6076C22.1762 22.3882 22.3892 22.2785 22.6345 22.2785C22.8797 22.2785 23.0798 22.3817 23.2347 22.5883C23.3896 22.7819 23.467 23.0723 23.467 23.4595C23.467 23.8339 23.4218 24.4728 23.3315 25.3764C23.2411 26.267 23.196 27.1964 23.196 28.1644C23.196 28.5517 23.2734 28.926 23.4283 29.2874C23.5961 29.6359 23.68 29.9586 23.68 30.2555C23.68 30.5395 23.5961 30.7718 23.4283 30.9525C23.2734 31.1332 23.054 31.2236 22.77 31.2236C22.4989 31.2236 22.2924 31.0687 22.1504 30.7589C22.0084 30.4491 21.9374 30.0942 21.9374 29.694ZM22.557 20.0906C22.273 20.0906 22.0472 20.0132 21.8794 19.8583C21.7116 19.7034 21.6277 19.4775 21.6277 19.1806C21.6277 18.8837 21.7309 18.632 21.9374 18.4255C22.144 18.2061 22.3892 18.0963 22.6732 18.0963C22.9572 18.0963 23.183 18.1802 23.3508 18.348C23.5316 18.5029 23.6219 18.7288 23.6219 19.0257C23.6219 19.3226 23.5122 19.5743 23.2928 19.7808C23.0862 19.9873 22.841 20.0906 22.557 20.0906ZM28.8149 23.7887C27.963 23.7887 27.266 24.0856 26.7239 24.6793C26.1947 25.2602 25.93 25.9572 25.93 26.7704C25.93 27.5836 26.2076 28.2742 26.7626 28.8421C27.3305 29.41 28.0211 29.694 28.8343 29.694C29.5571 29.694 30.209 29.4294 30.7898 28.9002C30.9964 28.7195 31.1513 28.6291 31.2545 28.6291C31.3578 28.6291 31.4481 28.6678 31.5256 28.7453C31.603 28.8227 31.6418 28.9066 31.6418 28.997C31.6418 29.3713 31.2739 29.836 30.5381 30.391C29.8153 30.9461 28.9892 31.2236 28.0598 31.2236C27.1434 31.2236 26.3431 30.8493 25.659 30.1006C24.9878 29.352 24.6522 28.4226 24.6522 27.3125C24.6522 25.8927 25.1878 24.6987 26.2592 23.7306C27.3305 22.7625 28.5116 22.2785 29.8024 22.2785C30.3445 22.2785 30.7834 22.3753 31.119 22.5689C31.4675 22.7496 31.6418 22.9884 31.6418 23.2853C31.6418 23.5693 31.5514 23.8016 31.3707 23.9823C31.2029 24.163 31.0351 24.2534 30.8673 24.2534C30.6995 24.2534 30.4091 24.1759 29.996 24.021C29.5959 23.8661 29.2022 23.7887 28.8149 23.7887ZM38.2728 28.513C38.3632 28.7453 38.5504 29.0615 38.8343 29.4617C39.1312 29.8489 39.2797 30.1652 39.2797 30.4104C39.2797 30.6556 39.2151 30.8557 39.086 31.0106C38.957 31.1526 38.7827 31.2236 38.5633 31.2236C38.034 31.2236 37.5629 30.675 37.1499 29.5778L36.995 29.1519C36.3367 30.533 35.3492 31.2236 34.0326 31.2236C33.3743 31.2236 32.8257 31.0171 32.3869 30.604C31.9609 30.1781 31.7479 29.6488 31.7479 29.0164C31.7479 28.0354 32.0835 27.1899 32.7548 26.48C33.426 25.77 34.3037 25.3893 35.3879 25.3376C35.1298 24.8859 34.8394 24.5502 34.5167 24.3308C34.2069 24.0985 33.9229 23.9629 33.6648 23.9242C33.4066 23.8855 33.1613 23.8661 32.929 23.8661C32.7096 23.8532 32.5353 23.8016 32.4062 23.7112C32.2772 23.6209 32.2126 23.4466 32.2126 23.1885C32.2126 22.9174 32.3159 22.698 32.5224 22.5302C32.7418 22.3624 33 22.2785 33.2969 22.2785C34.1359 22.2785 34.962 22.698 35.7752 23.537C36.5884 24.376 37.2983 25.6926 37.905 27.4868L38.2728 28.513ZM34.9039 26.3638C34.4392 26.3638 34.0197 26.5187 33.6454 26.8285C33.284 27.1383 33.1033 27.5384 33.1033 28.0289C33.1033 28.5194 33.2646 28.9325 33.5873 29.2681C33.9229 29.5908 34.3231 29.7521 34.7877 29.7521C35.2524 29.7521 35.6526 29.5908 35.9882 29.2681C36.3238 28.9325 36.4916 28.5388 36.4916 28.087C36.4916 27.7643 36.4335 27.4674 36.3173 27.1964C36.2011 26.9124 36.1301 26.7381 36.1043 26.6736C35.7687 26.4671 35.3686 26.3638 34.9039 26.3638Z" fill="#353542"/>
</svg>
