<svg width="68" height="58" viewBox="0 0 68 58" fill="none" xmlns="http://www.w3.org/2000/svg">
    <path d="M34.1183 10.8894C33.4796 11.0967 33.1247 11.7899 33.4258 12.3902C34.0317 13.5982 34.9216 14.6527 36.028 15.4617C37.4659 16.5131 39.1987 17.0978 40.9873 17.1353C42.776 17.1728 44.5324 16.6611 46.0141 15.671C47.1542 14.9091 48.0885 13.8928 48.7458 12.7114C49.0723 12.1244 48.7469 11.4164 48.1172 11.1823V11.1823C47.4948 10.9511 46.812 11.2738 46.4593 11.8361C45.9998 12.5687 45.3869 13.2016 44.6568 13.6896C43.5903 14.4022 42.3261 14.7705 41.0387 14.7435C39.7513 14.7165 38.5041 14.2956 37.4692 13.5389C36.7614 13.0214 36.1767 12.3641 35.7492 11.6138C35.4201 11.0363 34.7505 10.6842 34.1183 10.8894V10.8894Z" fill="#D87023"/>
    <path d="M40.0607 7.77188C40.8542 8.55356 42.0293 10.6711 41.4298 11.2647C40.8303 11.8583 38.6833 10.7032 37.8898 9.92147C37.0964 9.13979 36.9391 8.0249 37.5386 7.4313C38.1381 6.83771 39.2673 6.99019 40.0607 7.77188Z" fill="#009F79"/>
    <path d="M43.3202 9.20769C42.788 9.7615 42.0182 11.2436 42.4429 11.6417C42.8676 12.0399 44.326 11.2033 44.8582 10.6495C45.3905 10.0957 45.4776 9.32397 45.0529 8.92583C44.6282 8.52768 43.8524 8.65388 43.3202 9.20769Z" fill="#009F79"/>
    <path d="M11.419 7.67006C13.2114 7.67006 14.8528 8.03257 16.3431 8.75758C17.8535 9.46246 18.6088 10.2781 18.6088 11.2045C18.6088 11.6073 18.4678 11.9497 18.1858 12.2316C17.924 12.5136 17.6018 12.6546 17.2192 12.6546C16.8365 12.6546 16.4539 12.5035 16.0712 12.2014C15.6886 11.8993 15.316 11.567 14.9535 11.2045C14.6111 10.8219 14.0573 10.4795 13.292 10.1774C12.5468 9.87532 11.6607 9.72427 10.6336 9.72427C8.3377 9.72427 6.52515 10.4493 5.19596 11.8993C3.8869 13.3292 3.23237 15.2827 3.23237 17.7599C3.23237 20.2169 3.95739 22.3416 5.40742 24.134C6.85745 25.9264 8.69014 26.8226 10.9055 26.8226C13.1409 26.8226 15.175 25.7552 17.0077 23.6204C17.4105 23.1371 17.7025 22.8954 17.8838 22.8954C18.0852 22.8954 18.2362 22.9659 18.3369 23.1069C18.4577 23.2277 18.5181 23.419 18.5181 23.6809C18.5181 23.9427 18.3067 24.3656 17.8838 24.9496C17.481 25.5135 16.9271 26.0976 16.2223 26.7018C15.5375 27.2858 14.6312 27.7994 13.5034 28.2424C12.3958 28.6653 11.2378 28.8768 10.0294 28.8768C7.37101 28.8768 5.15568 27.9303 3.38341 26.0372C1.63129 24.1441 0.755226 21.7072 0.755226 18.7266C0.755226 15.7258 1.76219 13.1379 3.77613 10.9628C5.81021 8.76765 8.35784 7.67006 11.419 7.67006ZM31.8781 24.3757C31.9989 24.9597 32.2607 25.4833 32.6635 25.9465C33.0865 26.3896 33.2979 26.8427 33.2979 27.3059C33.2979 27.7691 33.1368 28.1518 32.8146 28.4539C32.4923 28.7358 32.1399 28.8768 31.7573 28.8768C31.3746 28.8768 31.0625 28.8063 30.8208 28.6653C30.5791 28.5244 30.3777 28.3129 30.2166 28.031C29.9951 27.608 29.8239 27.0945 29.703 26.4903L28.3738 20.1766C28.1725 19.2502 27.8502 18.5151 27.4072 17.9713C26.9842 17.4276 26.3196 17.1557 25.4134 17.1557C24.5272 17.1557 23.8324 17.4679 23.3289 18.0922C22.8456 18.6964 22.5939 19.361 22.5737 20.086C22.7348 24.859 22.8154 27.3865 22.8154 27.6684C22.8154 27.9303 22.6945 28.2021 22.4529 28.4841C22.2112 28.7459 21.899 28.8768 21.5164 28.8768C21.1337 28.8768 20.8014 28.7459 20.5195 28.4841C20.2577 28.2021 20.1268 27.749 20.1268 27.1247C20.1268 26.5004 20.1771 25.0201 20.2778 22.684C20.3785 20.3277 20.4289 18.505 20.4289 17.2161C20.4289 15.9272 20.3785 14.1952 20.2778 12.0202C20.1771 9.84511 20.1268 8.44542 20.1268 7.8211C20.1268 7.19678 20.2577 6.74365 20.5195 6.4617C20.8014 6.17974 21.1337 6.03877 21.5164 6.03877C21.899 6.03877 22.2112 6.17974 22.4529 6.4617C22.6945 6.72351 22.8154 7.16657 22.8154 7.79089C22.8154 8.39508 22.765 9.82497 22.6643 12.0806C22.5838 14.316 22.5435 16.1487 22.5435 17.5786C23.7317 15.8064 25.1012 14.9202 26.6519 14.9202C28.7666 14.9202 30.126 16.3401 30.7302 19.1797L31.8781 24.3757ZM36.9306 18.6359C36.0444 19.5221 35.6014 20.6096 35.6014 21.8985C35.6014 23.1874 36.0444 24.285 36.9306 25.1913C37.8368 26.0774 38.9244 26.5205 40.1931 26.5205C41.4821 26.5205 42.5595 26.0774 43.4255 25.1913C44.2915 24.285 44.7245 23.1874 44.7245 21.8985C44.7245 20.6096 44.2915 19.5221 43.4255 18.6359C42.5595 17.7498 41.4821 17.3067 40.1931 17.3067C38.9244 17.3067 37.8368 17.7498 36.9306 18.6359ZM38.1389 28.8768C36.85 28.8768 35.7725 28.3733 34.9066 27.3664C34.0406 26.3594 33.6076 25.1007 33.6076 23.5902C33.6076 22.0596 34.0808 20.5895 35.0274 19.1797C35.9739 17.7498 37.0816 16.6824 38.3504 15.9775C39.6192 15.2727 40.898 14.9202 42.1869 14.9202C43.4759 14.9202 44.5533 15.4237 45.4193 16.4307C46.2853 17.4377 46.7183 18.7064 46.7183 20.237C46.7183 21.7475 46.245 23.2176 45.2985 24.6475C44.3519 26.0573 43.2443 27.1146 41.9755 27.8195C40.7067 28.5244 39.4278 28.8768 38.1389 28.8768ZM52.0162 28.8768C51.6537 28.8768 51.3315 28.7258 51.0495 28.4237C50.7877 28.1014 50.5863 27.7188 50.4453 27.2757C49.1967 23.2076 48.0991 20.1665 47.1525 18.1526C46.7699 17.2866 46.5786 16.6522 46.5786 16.2494C46.5786 15.8466 46.6893 15.5244 46.9109 15.2827C47.1324 15.0411 47.4144 14.9202 47.7567 14.9202C48.2804 14.9202 48.7033 15.3129 49.0255 16.0984C49.3679 16.8838 49.9821 18.495 50.8683 20.9318C51.7745 23.3486 52.3183 24.8489 52.4996 25.433C52.6808 25.9969 52.8016 26.3594 52.8621 26.5205L52.9527 26.8226C53.5166 26.4399 54.151 25.6444 54.8559 24.4361C55.5809 23.2277 56.0743 22.0294 56.3361 20.8412C55.9535 19.8141 55.5809 18.8978 55.2184 18.0922C54.8559 17.2665 54.6746 16.6522 54.6746 16.2494C54.6746 15.8466 54.7854 15.5244 55.0069 15.2827C55.2284 15.0411 55.5104 14.9202 55.8528 14.9202C56.3764 14.9202 56.7993 15.3129 57.1215 16.0984C57.4639 16.8838 58.0782 18.495 58.9643 20.9318C59.8706 23.3486 60.4143 24.8489 60.5956 25.433C60.7768 25.9969 60.8977 26.3594 60.9581 26.5205L61.0487 26.8226C61.7737 26.3393 62.5491 25.292 63.3748 23.6809C64.2207 22.0496 64.6436 20.5794 64.6436 19.2703C64.6436 18.8273 64.5228 18.3036 64.2811 17.6995C64.0394 17.0751 63.9186 16.5918 63.9186 16.2494C63.9186 15.9071 64.0495 15.605 64.3113 15.3432C64.5932 15.0612 64.9658 14.9202 65.429 14.9202C65.8922 14.9202 66.2648 15.1418 66.5468 15.5848C66.8488 16.0279 66.9999 16.7731 66.9999 17.8203C66.9999 18.8675 66.6475 20.2874 65.9426 22.0798C65.2578 23.8722 64.3616 25.4531 63.254 26.8226C62.1463 28.1921 61.0991 28.8768 60.1122 28.8768C59.4275 28.8768 58.9039 28.3431 58.5414 27.2757C58.4608 27.0542 58.2795 26.5004 57.9976 25.6142L57.2424 23.409C56.4972 24.9597 55.6514 26.2587 54.7048 27.3059C53.7583 28.3532 52.8621 28.8768 52.0162 28.8768Z" fill="#353542"/>
    <path d="M11.5399 44.9815C11.6808 45.344 11.9729 45.8375 12.4159 46.4618C12.8791 47.066 13.1107 47.5594 13.1107 47.942C13.1107 48.3247 13.01 48.6368 12.8086 48.8785C12.6072 49.1 12.3354 49.2108 11.993 49.2108C11.1673 49.2108 10.4322 48.3549 9.78773 46.643L9.54606 45.9784C8.51895 48.1333 6.97829 49.2108 4.92407 49.2108C3.89697 49.2108 3.04104 48.8886 2.35631 48.2441C1.69171 47.5795 1.35941 46.7538 1.35941 45.767C1.35941 44.2364 1.88303 42.9172 2.93028 41.8096C3.97752 40.7019 5.347 40.1078 7.03871 40.0272C6.63592 39.3224 6.18279 38.7987 5.6793 38.4564C5.19596 38.0939 4.75289 37.8824 4.3501 37.822C3.94732 37.7616 3.56467 37.7314 3.20216 37.7314C2.85979 37.7112 2.58791 37.6307 2.38651 37.4897C2.18512 37.3487 2.08442 37.0768 2.08442 36.674C2.08442 36.2511 2.24554 35.9087 2.56777 35.6469C2.91014 35.3851 3.31293 35.2542 3.77613 35.2542C5.08519 35.2542 6.37411 35.9087 7.64289 37.2178C8.91167 38.5269 10.0193 40.5811 10.9659 43.3804L11.5399 44.9815ZM6.28348 41.6283C5.55846 41.6283 4.90394 41.87 4.31989 42.3533C3.75599 42.8367 3.47404 43.461 3.47404 44.2263C3.47404 44.9916 3.72578 45.6361 4.22927 46.1597C4.75289 46.6632 5.37721 46.9149 6.10223 46.9149C6.82724 46.9149 7.45157 46.6632 7.97519 46.1597C8.49881 45.6361 8.76062 45.0218 8.76062 44.3169C8.76062 43.8134 8.67 43.3502 8.48874 42.9273C8.30749 42.4842 8.19672 42.2124 8.15644 42.1117C7.63282 41.7894 7.0085 41.6283 6.28348 41.6283ZM14.1676 54.2557C14.369 53.4703 14.5603 52.3123 14.7415 50.7817C14.9429 49.2511 15.0436 47.4989 15.0436 45.5253C15.0436 43.5516 14.953 40.8429 14.7718 37.3991H13.8353C13.0498 37.3991 12.6571 37.0567 12.6571 36.3719C12.6571 35.6872 13.0498 35.3448 13.8353 35.3448C14.2381 35.3448 14.5401 35.3549 14.7415 35.3751C14.8221 32.8576 15.7687 30.7329 17.5812 29.0009C19.4139 27.2488 21.2466 26.3728 23.0792 26.3728C23.8043 26.3728 24.3984 26.5037 24.8616 26.7655C25.3449 27.0273 25.5866 27.4099 25.5866 27.9134C25.5866 28.3968 25.4456 28.7794 25.1637 29.0614C24.9019 29.3232 24.64 29.4541 24.3782 29.4541C24.1164 29.4541 23.6633 29.3433 23.0188 29.1218C22.3744 28.8801 21.74 28.7593 21.1157 28.7593C19.867 28.7593 18.7996 29.3131 17.9135 30.4208C17.0274 31.5083 16.5843 32.8174 16.5843 34.3479V35.4959H17.551L21.7198 35.2542C22.5053 35.2542 22.898 35.6268 22.898 36.3719C22.898 37.1171 22.5053 37.4897 21.7198 37.4897L17.551 37.248C17.1079 37.248 16.7857 37.2581 16.5843 37.2782C16.6246 39.4936 16.7152 41.9808 16.8562 44.7399C17.0173 47.4989 17.0978 50.2178 17.0978 52.8963C17.0978 56.1589 16.4635 57.7902 15.1947 57.7902C14.3085 57.7902 13.8655 57.2162 13.8655 56.0682C13.8655 55.6655 13.9662 55.0613 14.1676 54.2557ZM26.2934 41.9304L26.5351 47.3983C26.5351 47.942 26.3941 48.3851 26.1122 48.7275C25.8504 49.0497 25.5281 49.2108 25.1455 49.2108C24.7628 49.2108 24.4507 49.0598 24.209 48.7577C23.9673 48.4354 23.8465 48.0024 23.8465 47.4587C23.8465 46.9149 23.8969 46.1395 23.9975 45.1326C24.1989 43.1186 24.2996 41.4169 24.2996 40.0272C24.2996 39.4231 24.1083 38.8491 23.7257 38.3053C23.3632 37.7414 23.1819 37.2379 23.1819 36.7949C23.1819 36.3518 23.3329 35.9893 23.635 35.7074C23.9371 35.4053 24.2795 35.2542 24.6621 35.2542C25.6691 35.2542 26.1726 36.0497 26.1726 37.6407V38.8189C26.7768 37.7314 27.5018 36.8654 28.3477 36.2209C29.1935 35.5764 29.9689 35.2542 30.6737 35.2542C31.3786 35.2542 31.9123 35.4355 32.2748 35.798C32.6575 36.1403 32.8488 36.6036 32.8488 37.1876C32.8488 37.7716 32.7078 38.2651 32.4259 38.6678C32.1439 39.0505 31.8418 39.2418 31.5196 39.2418C31.1974 39.2418 30.9456 39.1613 30.7644 39.0001C30.6033 38.8189 30.4824 38.6376 30.4019 38.4564C30.3213 38.255 30.1703 38.0737 29.9487 37.9126C29.7272 37.7314 29.4452 37.6407 29.1029 37.6407C28.5188 37.6407 27.9348 38.0234 27.3508 38.7887C26.7667 39.554 26.4143 40.6012 26.2934 41.9304ZM34.2278 46.8243C34.2278 44.2867 34.1774 42.0613 34.0768 40.1481C33.9761 38.2348 33.9257 37.107 33.9257 36.7647C33.9257 36.4223 34.0566 36.09 34.3184 35.7678C34.6004 35.4254 34.9327 35.2542 35.3153 35.2542C35.698 35.2542 36.0101 35.4153 36.2518 35.7376C36.4935 36.0397 36.6143 36.4928 36.6143 37.097C36.6143 37.681 36.5438 38.6779 36.4028 40.0877C36.2619 41.4773 36.1914 42.9273 36.1914 44.4378C36.1914 45.0419 36.3122 45.626 36.5539 46.1899C36.8157 46.7337 36.9466 47.2371 36.9466 47.7003C36.9466 48.1434 36.8157 48.5059 36.5539 48.7879C36.3122 49.0698 35.9699 49.2108 35.5268 49.2108C35.1039 49.2108 34.7816 48.9691 34.5601 48.4858C34.3386 48.0024 34.2278 47.4486 34.2278 46.8243ZM35.1945 31.8406C34.7514 31.8406 34.399 31.7198 34.1372 31.4781C33.8754 31.2364 33.7445 30.884 33.7445 30.4208C33.7445 29.9576 33.9056 29.5648 34.2278 29.2426C34.55 28.9002 34.9327 28.7291 35.3757 28.7291C35.8188 28.7291 36.1712 28.86 36.4331 29.1218C36.715 29.3635 36.856 29.7159 36.856 30.1791C36.856 30.6423 36.6848 31.035 36.3424 31.3572C36.0202 31.6795 35.6376 31.8406 35.1945 31.8406ZM44.9584 37.6105C43.6292 37.6105 42.5417 38.0737 41.6958 39.0001C40.8701 39.9064 40.4572 40.9939 40.4572 42.2627C40.4572 43.5315 40.8902 44.609 41.7562 45.4951C42.6424 46.3812 43.7198 46.8243 44.9886 46.8243C46.1164 46.8243 47.1334 46.4114 48.0397 45.5857C48.3619 45.3038 48.6036 45.1628 48.7647 45.1628C48.9258 45.1628 49.0668 45.2232 49.1876 45.344C49.3085 45.4649 49.3689 45.5958 49.3689 45.7368C49.3689 46.3208 48.7949 47.0458 47.647 47.9118C46.5192 48.7778 45.2303 49.2108 43.7802 49.2108C42.3503 49.2108 41.1017 48.6268 40.0343 47.4587C38.9871 46.2906 38.4634 44.8406 38.4634 43.1086C38.4634 40.8932 39.2992 39.0303 40.9708 37.5199C42.6424 36.0094 44.4851 35.2542 46.499 35.2542C47.3449 35.2542 48.0296 35.4053 48.5533 35.7074C49.097 35.9893 49.3689 36.3619 49.3689 36.8251C49.3689 37.2682 49.2279 37.6307 48.946 37.9126C48.6842 38.1946 48.4223 38.3355 48.1605 38.3355C47.8987 38.3355 47.4456 38.2147 46.8011 37.973C46.1768 37.7314 45.5626 37.6105 44.9584 37.6105ZM59.715 44.9815C59.856 45.344 60.148 45.8375 60.5911 46.4618C61.0543 47.066 61.2859 47.5594 61.2859 47.942C61.2859 48.3247 61.1852 48.6368 60.9838 48.8785C60.7824 49.1 60.5105 49.2108 60.1682 49.2108C59.3424 49.2108 58.6074 48.3549 57.9629 46.643L57.7212 45.9784C56.6941 48.1333 55.1535 49.2108 53.0992 49.2108C52.0721 49.2108 51.2162 48.8886 50.5315 48.2441C49.8669 47.5795 49.5346 46.7538 49.5346 45.767C49.5346 44.2364 50.0582 42.9172 51.1054 41.8096C52.1527 40.7019 53.5222 40.1078 55.2139 40.0272C54.8111 39.3224 54.358 38.7987 53.8545 38.4564C53.3711 38.0939 52.9281 37.8824 52.5253 37.822C52.1225 37.7616 51.7398 37.7314 51.3773 37.7314C51.035 37.7112 50.7631 37.6307 50.5617 37.4897C50.3603 37.3487 50.2596 37.0768 50.2596 36.674C50.2596 36.2511 50.4207 35.9087 50.7429 35.6469C51.0853 35.3851 51.4881 35.2542 51.9513 35.2542C53.2604 35.2542 54.5493 35.9087 55.8181 37.2178C57.0868 38.5269 58.1945 40.5811 59.1411 43.3804L59.715 44.9815ZM54.4587 41.6283C53.7336 41.6283 53.0791 41.87 52.4951 42.3533C51.9312 42.8367 51.6492 43.461 51.6492 44.2263C51.6492 44.9916 51.901 45.6361 52.4044 46.1597C52.9281 46.6632 53.5524 46.9149 54.2774 46.9149C55.0024 46.9149 55.6267 46.6632 56.1504 46.1597C56.674 45.6361 56.9358 45.0218 56.9358 44.3169C56.9358 43.8134 56.8452 43.3502 56.6639 42.9273C56.4827 42.4842 56.3719 42.2124 56.3316 42.1117C55.808 41.7894 55.1837 41.6283 54.4587 41.6283Z" fill="#353542"/>
    </svg>
    